<mxfile host="app.diagrams.net" modified="2023-02-06T19:16:06.846Z" agent="5.0 (Windows NT 10.0; Win64; x64) AppleWebKit/537.36 (KHTML, like Gecko) Chrome/109.0.0.0 Safari/537.36" etag="4myUOSqXaEaZXXlvjIu8" version="20.8.16" type="github">
  <diagram name="Схема базы данных" id="sNNG_rTBb9Sv7WH3giw5">
    <mxGraphModel dx="4510" dy="2183" grid="1" gridSize="10" guides="1" tooltips="1" connect="1" arrows="1" fold="1" page="1" pageScale="1" pageWidth="413" pageHeight="583" background="#ffffff" math="0" shadow="0">
      <root>
        <mxCell id="0" />
        <mxCell id="1" parent="0" />
        <mxCell id="tufFg8tONRUplMRt9rdd-1" value="" style="rounded=0;whiteSpace=wrap;html=1;strokeColor=#1c4740;fillColor=#B7BABD;glass=0;gradientColor=none;" vertex="1" parent="1">
          <mxGeometry x="-370" y="60" width="1620" height="1070" as="geometry" />
        </mxCell>
        <mxCell id="tufFg8tONRUplMRt9rdd-44" value="users" style="shape=table;startSize=30;container=1;collapsible=1;childLayout=tableLayout;fixedRows=1;rowLines=0;fontStyle=1;align=center;resizeLast=1;shadow=0;fontColor=#ffffff;strokeColor=#1C4740;fillColor=#3FA292;swimlaneFillColor=#FFFFFF;" vertex="1" parent="1">
          <mxGeometry x="279.5" y="240" width="263" height="330" as="geometry" />
        </mxCell>
        <mxCell id="tufFg8tONRUplMRt9rdd-45" value="" style="shape=partialRectangle;collapsible=0;dropTarget=0;pointerEvents=0;fillColor=none;top=0;left=0;bottom=1;right=0;points=[[0,0.5],[1,0.5]];portConstraint=eastwest;shadow=0;fontColor=#030303;strokeColor=#1C4740;" vertex="1" parent="tufFg8tONRUplMRt9rdd-44">
          <mxGeometry y="30" width="263" height="30" as="geometry" />
        </mxCell>
        <mxCell id="tufFg8tONRUplMRt9rdd-46" value="PK" style="shape=partialRectangle;connectable=0;fillColor=none;top=0;left=0;bottom=0;right=0;fontStyle=1;overflow=hidden;shadow=0;fontColor=#030303;strokeColor=#000000;" vertex="1" parent="tufFg8tONRUplMRt9rdd-45">
          <mxGeometry width="30" height="30" as="geometry">
            <mxRectangle width="30" height="30" as="alternateBounds" />
          </mxGeometry>
        </mxCell>
        <mxCell id="tufFg8tONRUplMRt9rdd-47" value="id" style="shape=partialRectangle;connectable=0;fillColor=none;top=0;left=0;bottom=0;right=0;align=left;spacingLeft=6;fontStyle=5;overflow=hidden;shadow=0;fontColor=#030303;strokeColor=#000000;" vertex="1" parent="tufFg8tONRUplMRt9rdd-45">
          <mxGeometry x="30" width="123" height="30" as="geometry">
            <mxRectangle width="123" height="30" as="alternateBounds" />
          </mxGeometry>
        </mxCell>
        <mxCell id="tufFg8tONRUplMRt9rdd-48" value="uuid" style="shape=partialRectangle;connectable=0;fillColor=none;top=0;left=0;bottom=0;right=0;align=left;spacingLeft=6;fontStyle=5;overflow=hidden;shadow=0;fontColor=#030303;strokeColor=#000000;" vertex="1" parent="tufFg8tONRUplMRt9rdd-45">
          <mxGeometry x="153" width="110" height="30" as="geometry">
            <mxRectangle width="110" height="30" as="alternateBounds" />
          </mxGeometry>
        </mxCell>
        <mxCell id="tufFg8tONRUplMRt9rdd-49" style="shape=partialRectangle;collapsible=0;dropTarget=0;pointerEvents=0;fillColor=none;top=0;left=0;bottom=0;right=0;points=[[0,0.5],[1,0.5]];portConstraint=eastwest;shadow=0;fontColor=#030303;strokeColor=#1c4740;" vertex="1" parent="tufFg8tONRUplMRt9rdd-44">
          <mxGeometry y="60" width="263" height="30" as="geometry" />
        </mxCell>
        <mxCell id="tufFg8tONRUplMRt9rdd-50" value="" style="shape=partialRectangle;connectable=0;fillColor=none;top=0;left=0;bottom=0;right=0;editable=1;overflow=hidden;shadow=0;fontColor=#030303;strokeColor=#000000;" vertex="1" parent="tufFg8tONRUplMRt9rdd-49">
          <mxGeometry width="30" height="30" as="geometry">
            <mxRectangle width="30" height="30" as="alternateBounds" />
          </mxGeometry>
        </mxCell>
        <mxCell id="tufFg8tONRUplMRt9rdd-51" value="first_name" style="shape=partialRectangle;connectable=0;fillColor=none;top=0;left=0;bottom=0;right=0;align=left;spacingLeft=6;overflow=hidden;shadow=0;fontColor=#030303;strokeColor=#000000;" vertex="1" parent="tufFg8tONRUplMRt9rdd-49">
          <mxGeometry x="30" width="123" height="30" as="geometry">
            <mxRectangle width="123" height="30" as="alternateBounds" />
          </mxGeometry>
        </mxCell>
        <mxCell id="tufFg8tONRUplMRt9rdd-52" value="varchar(255)" style="shape=partialRectangle;connectable=0;fillColor=none;top=0;left=0;bottom=0;right=0;align=left;spacingLeft=6;overflow=hidden;shadow=0;fontColor=#030303;strokeColor=#000000;" vertex="1" parent="tufFg8tONRUplMRt9rdd-49">
          <mxGeometry x="153" width="110" height="30" as="geometry">
            <mxRectangle width="110" height="30" as="alternateBounds" />
          </mxGeometry>
        </mxCell>
        <mxCell id="tufFg8tONRUplMRt9rdd-97" style="shape=partialRectangle;collapsible=0;dropTarget=0;pointerEvents=0;fillColor=none;top=0;left=0;bottom=0;right=0;points=[[0,0.5],[1,0.5]];portConstraint=eastwest;shadow=0;fontColor=#030303;strokeColor=#000000;" vertex="1" parent="tufFg8tONRUplMRt9rdd-44">
          <mxGeometry y="90" width="263" height="30" as="geometry" />
        </mxCell>
        <mxCell id="tufFg8tONRUplMRt9rdd-98" value="" style="shape=partialRectangle;connectable=0;fillColor=none;top=0;left=0;bottom=0;right=0;editable=1;overflow=hidden;shadow=0;fontColor=#030303;strokeColor=#000000;" vertex="1" parent="tufFg8tONRUplMRt9rdd-97">
          <mxGeometry width="30" height="30" as="geometry">
            <mxRectangle width="30" height="30" as="alternateBounds" />
          </mxGeometry>
        </mxCell>
        <mxCell id="tufFg8tONRUplMRt9rdd-99" value="last_name" style="shape=partialRectangle;connectable=0;fillColor=none;top=0;left=0;bottom=0;right=0;align=left;spacingLeft=6;overflow=hidden;shadow=0;fontColor=#030303;strokeColor=#000000;" vertex="1" parent="tufFg8tONRUplMRt9rdd-97">
          <mxGeometry x="30" width="123" height="30" as="geometry">
            <mxRectangle width="123" height="30" as="alternateBounds" />
          </mxGeometry>
        </mxCell>
        <mxCell id="tufFg8tONRUplMRt9rdd-100" value="varchar(255)" style="shape=partialRectangle;connectable=0;fillColor=none;top=0;left=0;bottom=0;right=0;align=left;spacingLeft=6;overflow=hidden;shadow=0;fontColor=#030303;strokeColor=#000000;" vertex="1" parent="tufFg8tONRUplMRt9rdd-97">
          <mxGeometry x="153" width="110" height="30" as="geometry">
            <mxRectangle width="110" height="30" as="alternateBounds" />
          </mxGeometry>
        </mxCell>
        <mxCell id="tufFg8tONRUplMRt9rdd-101" style="shape=partialRectangle;collapsible=0;dropTarget=0;pointerEvents=0;fillColor=none;top=0;left=0;bottom=0;right=0;points=[[0,0.5],[1,0.5]];portConstraint=eastwest;shadow=0;fontColor=#030303;strokeColor=#000000;" vertex="1" parent="tufFg8tONRUplMRt9rdd-44">
          <mxGeometry y="120" width="263" height="30" as="geometry" />
        </mxCell>
        <mxCell id="tufFg8tONRUplMRt9rdd-102" value="" style="shape=partialRectangle;connectable=0;fillColor=none;top=0;left=0;bottom=0;right=0;editable=1;overflow=hidden;shadow=0;fontColor=#030303;strokeColor=#000000;" vertex="1" parent="tufFg8tONRUplMRt9rdd-101">
          <mxGeometry width="30" height="30" as="geometry">
            <mxRectangle width="30" height="30" as="alternateBounds" />
          </mxGeometry>
        </mxCell>
        <mxCell id="tufFg8tONRUplMRt9rdd-103" value="middle_name" style="shape=partialRectangle;connectable=0;fillColor=none;top=0;left=0;bottom=0;right=0;align=left;spacingLeft=6;overflow=hidden;shadow=0;fontColor=#030303;strokeColor=#000000;" vertex="1" parent="tufFg8tONRUplMRt9rdd-101">
          <mxGeometry x="30" width="123" height="30" as="geometry">
            <mxRectangle width="123" height="30" as="alternateBounds" />
          </mxGeometry>
        </mxCell>
        <mxCell id="tufFg8tONRUplMRt9rdd-104" value="varchar(255)" style="shape=partialRectangle;connectable=0;fillColor=none;top=0;left=0;bottom=0;right=0;align=left;spacingLeft=6;overflow=hidden;shadow=0;fontColor=#030303;strokeColor=#000000;" vertex="1" parent="tufFg8tONRUplMRt9rdd-101">
          <mxGeometry x="153" width="110" height="30" as="geometry">
            <mxRectangle width="110" height="30" as="alternateBounds" />
          </mxGeometry>
        </mxCell>
        <mxCell id="tufFg8tONRUplMRt9rdd-105" style="shape=partialRectangle;collapsible=0;dropTarget=0;pointerEvents=0;fillColor=none;top=0;left=0;bottom=0;right=0;points=[[0,0.5],[1,0.5]];portConstraint=eastwest;shadow=0;fontColor=#030303;strokeColor=#000000;" vertex="1" parent="tufFg8tONRUplMRt9rdd-44">
          <mxGeometry y="150" width="263" height="30" as="geometry" />
        </mxCell>
        <mxCell id="tufFg8tONRUplMRt9rdd-106" value="" style="shape=partialRectangle;connectable=0;fillColor=none;top=0;left=0;bottom=0;right=0;editable=1;overflow=hidden;shadow=0;fontColor=#030303;strokeColor=#000000;" vertex="1" parent="tufFg8tONRUplMRt9rdd-105">
          <mxGeometry width="30" height="30" as="geometry">
            <mxRectangle width="30" height="30" as="alternateBounds" />
          </mxGeometry>
        </mxCell>
        <mxCell id="tufFg8tONRUplMRt9rdd-107" value="keycloak_id?" style="shape=partialRectangle;connectable=0;fillColor=none;top=0;left=0;bottom=0;right=0;align=left;spacingLeft=6;overflow=hidden;shadow=0;fontColor=#030303;strokeColor=#000000;" vertex="1" parent="tufFg8tONRUplMRt9rdd-105">
          <mxGeometry x="30" width="123" height="30" as="geometry">
            <mxRectangle width="123" height="30" as="alternateBounds" />
          </mxGeometry>
        </mxCell>
        <mxCell id="tufFg8tONRUplMRt9rdd-108" value="uuid" style="shape=partialRectangle;connectable=0;fillColor=none;top=0;left=0;bottom=0;right=0;align=left;spacingLeft=6;overflow=hidden;shadow=0;fontColor=#030303;strokeColor=#000000;" vertex="1" parent="tufFg8tONRUplMRt9rdd-105">
          <mxGeometry x="153" width="110" height="30" as="geometry">
            <mxRectangle width="110" height="30" as="alternateBounds" />
          </mxGeometry>
        </mxCell>
        <mxCell id="tufFg8tONRUplMRt9rdd-109" style="shape=partialRectangle;collapsible=0;dropTarget=0;pointerEvents=0;fillColor=none;top=0;left=0;bottom=0;right=0;points=[[0,0.5],[1,0.5]];portConstraint=eastwest;shadow=0;fontColor=#030303;strokeColor=#000000;" vertex="1" parent="tufFg8tONRUplMRt9rdd-44">
          <mxGeometry y="180" width="263" height="30" as="geometry" />
        </mxCell>
        <mxCell id="tufFg8tONRUplMRt9rdd-110" value="" style="shape=partialRectangle;connectable=0;fillColor=none;top=0;left=0;bottom=0;right=0;editable=1;overflow=hidden;shadow=0;fontColor=#030303;strokeColor=#000000;" vertex="1" parent="tufFg8tONRUplMRt9rdd-109">
          <mxGeometry width="30" height="30" as="geometry">
            <mxRectangle width="30" height="30" as="alternateBounds" />
          </mxGeometry>
        </mxCell>
        <mxCell id="tufFg8tONRUplMRt9rdd-111" value="keycloak_enabled?" style="shape=partialRectangle;connectable=0;fillColor=none;top=0;left=0;bottom=0;right=0;align=left;spacingLeft=6;overflow=hidden;shadow=0;fontColor=#030303;strokeColor=#000000;" vertex="1" parent="tufFg8tONRUplMRt9rdd-109">
          <mxGeometry x="30" width="123" height="30" as="geometry">
            <mxRectangle width="123" height="30" as="alternateBounds" />
          </mxGeometry>
        </mxCell>
        <mxCell id="tufFg8tONRUplMRt9rdd-112" value="boolean" style="shape=partialRectangle;connectable=0;fillColor=none;top=0;left=0;bottom=0;right=0;align=left;spacingLeft=6;overflow=hidden;shadow=0;fontColor=#030303;strokeColor=#000000;" vertex="1" parent="tufFg8tONRUplMRt9rdd-109">
          <mxGeometry x="153" width="110" height="30" as="geometry">
            <mxRectangle width="110" height="30" as="alternateBounds" />
          </mxGeometry>
        </mxCell>
        <mxCell id="tufFg8tONRUplMRt9rdd-113" style="shape=partialRectangle;collapsible=0;dropTarget=0;pointerEvents=0;fillColor=none;top=0;left=0;bottom=0;right=0;points=[[0,0.5],[1,0.5]];portConstraint=eastwest;shadow=0;fontColor=#030303;strokeColor=#000000;" vertex="1" parent="tufFg8tONRUplMRt9rdd-44">
          <mxGeometry y="210" width="263" height="30" as="geometry" />
        </mxCell>
        <mxCell id="tufFg8tONRUplMRt9rdd-114" value="" style="shape=partialRectangle;connectable=0;fillColor=none;top=0;left=0;bottom=0;right=0;editable=1;overflow=hidden;shadow=0;fontColor=#030303;strokeColor=#000000;" vertex="1" parent="tufFg8tONRUplMRt9rdd-113">
          <mxGeometry width="30" height="30" as="geometry">
            <mxRectangle width="30" height="30" as="alternateBounds" />
          </mxGeometry>
        </mxCell>
        <mxCell id="tufFg8tONRUplMRt9rdd-115" value="deactivated" style="shape=partialRectangle;connectable=0;fillColor=none;top=0;left=0;bottom=0;right=0;align=left;spacingLeft=6;overflow=hidden;shadow=0;fontColor=#030303;strokeColor=#000000;" vertex="1" parent="tufFg8tONRUplMRt9rdd-113">
          <mxGeometry x="30" width="123" height="30" as="geometry">
            <mxRectangle width="123" height="30" as="alternateBounds" />
          </mxGeometry>
        </mxCell>
        <mxCell id="tufFg8tONRUplMRt9rdd-116" value="boolean" style="shape=partialRectangle;connectable=0;fillColor=none;top=0;left=0;bottom=0;right=0;align=left;spacingLeft=6;overflow=hidden;shadow=0;fontColor=#030303;strokeColor=#000000;" vertex="1" parent="tufFg8tONRUplMRt9rdd-113">
          <mxGeometry x="153" width="110" height="30" as="geometry">
            <mxRectangle width="110" height="30" as="alternateBounds" />
          </mxGeometry>
        </mxCell>
        <mxCell id="tufFg8tONRUplMRt9rdd-117" style="shape=partialRectangle;collapsible=0;dropTarget=0;pointerEvents=0;fillColor=none;top=0;left=0;bottom=0;right=0;points=[[0,0.5],[1,0.5]];portConstraint=eastwest;shadow=0;fontColor=#030303;strokeColor=#000000;" vertex="1" parent="tufFg8tONRUplMRt9rdd-44">
          <mxGeometry y="240" width="263" height="30" as="geometry" />
        </mxCell>
        <mxCell id="tufFg8tONRUplMRt9rdd-118" value="" style="shape=partialRectangle;connectable=0;fillColor=none;top=0;left=0;bottom=0;right=0;editable=1;overflow=hidden;shadow=0;fontColor=#030303;strokeColor=#000000;" vertex="1" parent="tufFg8tONRUplMRt9rdd-117">
          <mxGeometry width="30" height="30" as="geometry">
            <mxRectangle width="30" height="30" as="alternateBounds" />
          </mxGeometry>
        </mxCell>
        <mxCell id="tufFg8tONRUplMRt9rdd-119" value="birth_date" style="shape=partialRectangle;connectable=0;fillColor=none;top=0;left=0;bottom=0;right=0;align=left;spacingLeft=6;overflow=hidden;shadow=0;fontColor=#030303;strokeColor=#000000;" vertex="1" parent="tufFg8tONRUplMRt9rdd-117">
          <mxGeometry x="30" width="123" height="30" as="geometry">
            <mxRectangle width="123" height="30" as="alternateBounds" />
          </mxGeometry>
        </mxCell>
        <mxCell id="tufFg8tONRUplMRt9rdd-120" value="timestamp" style="shape=partialRectangle;connectable=0;fillColor=none;top=0;left=0;bottom=0;right=0;align=left;spacingLeft=6;overflow=hidden;shadow=0;fontColor=#030303;strokeColor=#000000;" vertex="1" parent="tufFg8tONRUplMRt9rdd-117">
          <mxGeometry x="153" width="110" height="30" as="geometry">
            <mxRectangle width="110" height="30" as="alternateBounds" />
          </mxGeometry>
        </mxCell>
        <mxCell id="tufFg8tONRUplMRt9rdd-89" value="" style="shape=partialRectangle;collapsible=0;dropTarget=0;pointerEvents=0;fillColor=none;top=0;left=0;bottom=0;right=0;points=[[0,0.5],[1,0.5]];portConstraint=eastwest;shadow=0;fontColor=#030303;strokeColor=#000000;" vertex="1" parent="tufFg8tONRUplMRt9rdd-44">
          <mxGeometry y="270" width="263" height="30" as="geometry" />
        </mxCell>
        <mxCell id="tufFg8tONRUplMRt9rdd-90" value="" style="shape=partialRectangle;connectable=0;fillColor=none;top=0;left=0;bottom=0;right=0;editable=1;overflow=hidden;shadow=0;fontColor=#030303;strokeColor=#000000;" vertex="1" parent="tufFg8tONRUplMRt9rdd-89">
          <mxGeometry width="30" height="30" as="geometry">
            <mxRectangle width="30" height="30" as="alternateBounds" />
          </mxGeometry>
        </mxCell>
        <mxCell id="tufFg8tONRUplMRt9rdd-91" value="updatedAt" style="shape=partialRectangle;connectable=0;fillColor=none;top=0;left=0;bottom=0;right=0;align=left;spacingLeft=6;overflow=hidden;shadow=0;fontColor=#030303;strokeColor=#000000;" vertex="1" parent="tufFg8tONRUplMRt9rdd-89">
          <mxGeometry x="30" width="123" height="30" as="geometry">
            <mxRectangle width="123" height="30" as="alternateBounds" />
          </mxGeometry>
        </mxCell>
        <mxCell id="tufFg8tONRUplMRt9rdd-92" value="timestamp" style="shape=partialRectangle;connectable=0;fillColor=none;top=0;left=0;bottom=0;right=0;align=left;spacingLeft=6;overflow=hidden;shadow=0;fontColor=#030303;strokeColor=#000000;" vertex="1" parent="tufFg8tONRUplMRt9rdd-89">
          <mxGeometry x="153" width="110" height="30" as="geometry">
            <mxRectangle width="110" height="30" as="alternateBounds" />
          </mxGeometry>
        </mxCell>
        <mxCell id="tufFg8tONRUplMRt9rdd-93" style="shape=partialRectangle;collapsible=0;dropTarget=0;pointerEvents=0;fillColor=none;top=0;left=0;bottom=0;right=0;points=[[0,0.5],[1,0.5]];portConstraint=eastwest;shadow=0;fontColor=#030303;strokeColor=#000000;" vertex="1" parent="tufFg8tONRUplMRt9rdd-44">
          <mxGeometry y="300" width="263" height="30" as="geometry" />
        </mxCell>
        <mxCell id="tufFg8tONRUplMRt9rdd-94" style="shape=partialRectangle;connectable=0;fillColor=none;top=0;left=0;bottom=0;right=0;editable=1;overflow=hidden;shadow=0;fontColor=#030303;strokeColor=#000000;" vertex="1" parent="tufFg8tONRUplMRt9rdd-93">
          <mxGeometry width="30" height="30" as="geometry">
            <mxRectangle width="30" height="30" as="alternateBounds" />
          </mxGeometry>
        </mxCell>
        <mxCell id="tufFg8tONRUplMRt9rdd-95" value="createdAt" style="shape=partialRectangle;connectable=0;fillColor=none;top=0;left=0;bottom=0;right=0;align=left;spacingLeft=6;overflow=hidden;shadow=0;fontColor=#030303;strokeColor=#000000;" vertex="1" parent="tufFg8tONRUplMRt9rdd-93">
          <mxGeometry x="30" width="123" height="30" as="geometry">
            <mxRectangle width="123" height="30" as="alternateBounds" />
          </mxGeometry>
        </mxCell>
        <mxCell id="tufFg8tONRUplMRt9rdd-96" value="timestamp" style="shape=partialRectangle;connectable=0;fillColor=none;top=0;left=0;bottom=0;right=0;align=left;spacingLeft=6;overflow=hidden;shadow=0;fontColor=#030303;strokeColor=#000000;" vertex="1" parent="tufFg8tONRUplMRt9rdd-93">
          <mxGeometry x="153" width="110" height="30" as="geometry">
            <mxRectangle width="110" height="30" as="alternateBounds" />
          </mxGeometry>
        </mxCell>
        <mxCell id="tufFg8tONRUplMRt9rdd-127" value="Сервис пользователей" style="text;html=1;strokeColor=none;fillColor=none;align=center;verticalAlign=middle;whiteSpace=wrap;rounded=0;shadow=0;fontColor=#030303;strokeWidth=5;spacing=7;spacingTop=1;fontSize=30;" vertex="1" parent="1">
          <mxGeometry x="121" y="100" width="580" height="30" as="geometry" />
        </mxCell>
        <mxCell id="tufFg8tONRUplMRt9rdd-128" value="users_roles" style="shape=table;startSize=30;container=1;collapsible=1;childLayout=tableLayout;fixedRows=1;rowLines=0;fontStyle=1;align=center;resizeLast=1;shadow=0;fontColor=#ffffff;strokeColor=#1C4740;fillColor=#3FA292;swimlaneFillColor=#FFFFFF;" vertex="1" parent="1">
          <mxGeometry x="610" y="240" width="263" height="180" as="geometry" />
        </mxCell>
        <mxCell id="tufFg8tONRUplMRt9rdd-129" value="" style="shape=partialRectangle;collapsible=0;dropTarget=0;pointerEvents=0;fillColor=none;top=0;left=0;bottom=1;right=0;points=[[0,0.5],[1,0.5]];portConstraint=eastwest;shadow=0;fontColor=#030303;strokeColor=#1C4740;" vertex="1" parent="tufFg8tONRUplMRt9rdd-128">
          <mxGeometry y="30" width="263" height="30" as="geometry" />
        </mxCell>
        <mxCell id="tufFg8tONRUplMRt9rdd-130" value="PK" style="shape=partialRectangle;connectable=0;fillColor=none;top=0;left=0;bottom=0;right=0;fontStyle=1;overflow=hidden;shadow=0;fontColor=#030303;strokeColor=#000000;" vertex="1" parent="tufFg8tONRUplMRt9rdd-129">
          <mxGeometry width="30" height="30" as="geometry">
            <mxRectangle width="30" height="30" as="alternateBounds" />
          </mxGeometry>
        </mxCell>
        <mxCell id="tufFg8tONRUplMRt9rdd-131" value="id" style="shape=partialRectangle;connectable=0;fillColor=none;top=0;left=0;bottom=0;right=0;align=left;spacingLeft=6;fontStyle=5;overflow=hidden;shadow=0;fontColor=#030303;strokeColor=#000000;" vertex="1" parent="tufFg8tONRUplMRt9rdd-129">
          <mxGeometry x="30" width="123" height="30" as="geometry">
            <mxRectangle width="123" height="30" as="alternateBounds" />
          </mxGeometry>
        </mxCell>
        <mxCell id="tufFg8tONRUplMRt9rdd-132" value="uuid" style="shape=partialRectangle;connectable=0;fillColor=none;top=0;left=0;bottom=0;right=0;align=left;spacingLeft=6;fontStyle=5;overflow=hidden;shadow=0;fontColor=#030303;strokeColor=#000000;" vertex="1" parent="tufFg8tONRUplMRt9rdd-129">
          <mxGeometry x="153" width="110" height="30" as="geometry">
            <mxRectangle width="110" height="30" as="alternateBounds" />
          </mxGeometry>
        </mxCell>
        <mxCell id="tufFg8tONRUplMRt9rdd-133" style="shape=partialRectangle;collapsible=0;dropTarget=0;pointerEvents=0;fillColor=none;top=0;left=0;bottom=1;right=0;points=[[0,0.5],[1,0.5]];portConstraint=eastwest;shadow=0;fontColor=#030303;strokeColor=#1c4740;" vertex="1" parent="tufFg8tONRUplMRt9rdd-128">
          <mxGeometry y="60" width="263" height="30" as="geometry" />
        </mxCell>
        <mxCell id="tufFg8tONRUplMRt9rdd-134" value="FK" style="shape=partialRectangle;connectable=0;fillColor=none;top=0;left=0;bottom=0;right=0;editable=1;overflow=hidden;shadow=0;fontColor=#030303;strokeColor=#000000;" vertex="1" parent="tufFg8tONRUplMRt9rdd-133">
          <mxGeometry width="30" height="30" as="geometry">
            <mxRectangle width="30" height="30" as="alternateBounds" />
          </mxGeometry>
        </mxCell>
        <mxCell id="tufFg8tONRUplMRt9rdd-135" value="user_id" style="shape=partialRectangle;connectable=0;fillColor=none;top=0;left=0;bottom=0;right=0;align=left;spacingLeft=6;overflow=hidden;shadow=0;fontColor=#030303;strokeColor=#000000;fontStyle=5" vertex="1" parent="tufFg8tONRUplMRt9rdd-133">
          <mxGeometry x="30" width="123" height="30" as="geometry">
            <mxRectangle width="123" height="30" as="alternateBounds" />
          </mxGeometry>
        </mxCell>
        <mxCell id="tufFg8tONRUplMRt9rdd-136" value="uuid" style="shape=partialRectangle;connectable=0;fillColor=none;top=0;left=0;bottom=0;right=0;align=left;spacingLeft=6;overflow=hidden;shadow=0;fontColor=#030303;strokeColor=#000000;fontStyle=5" vertex="1" parent="tufFg8tONRUplMRt9rdd-133">
          <mxGeometry x="153" width="110" height="30" as="geometry">
            <mxRectangle width="110" height="30" as="alternateBounds" />
          </mxGeometry>
        </mxCell>
        <mxCell id="tufFg8tONRUplMRt9rdd-137" style="shape=partialRectangle;collapsible=0;dropTarget=0;pointerEvents=0;fillColor=none;top=0;left=0;bottom=1;right=0;points=[[0,0.5],[1,0.5]];portConstraint=eastwest;shadow=0;fontColor=#030303;strokeColor=#1C4740;" vertex="1" parent="tufFg8tONRUplMRt9rdd-128">
          <mxGeometry y="90" width="263" height="30" as="geometry" />
        </mxCell>
        <mxCell id="tufFg8tONRUplMRt9rdd-138" value="FK" style="shape=partialRectangle;connectable=0;fillColor=none;top=0;left=0;bottom=0;right=0;editable=1;overflow=hidden;shadow=0;fontColor=#030303;strokeColor=#000000;" vertex="1" parent="tufFg8tONRUplMRt9rdd-137">
          <mxGeometry width="30" height="30" as="geometry">
            <mxRectangle width="30" height="30" as="alternateBounds" />
          </mxGeometry>
        </mxCell>
        <mxCell id="tufFg8tONRUplMRt9rdd-139" value="roles_id" style="shape=partialRectangle;connectable=0;fillColor=none;top=0;left=0;bottom=0;right=0;align=left;spacingLeft=6;overflow=hidden;shadow=0;fontColor=#030303;strokeColor=#000000;fontStyle=5" vertex="1" parent="tufFg8tONRUplMRt9rdd-137">
          <mxGeometry x="30" width="123" height="30" as="geometry">
            <mxRectangle width="123" height="30" as="alternateBounds" />
          </mxGeometry>
        </mxCell>
        <mxCell id="tufFg8tONRUplMRt9rdd-140" value="uuid" style="shape=partialRectangle;connectable=0;fillColor=none;top=0;left=0;bottom=0;right=0;align=left;spacingLeft=6;overflow=hidden;shadow=0;fontColor=#030303;strokeColor=#000000;fontStyle=5" vertex="1" parent="tufFg8tONRUplMRt9rdd-137">
          <mxGeometry x="153" width="110" height="30" as="geometry">
            <mxRectangle width="110" height="30" as="alternateBounds" />
          </mxGeometry>
        </mxCell>
        <mxCell id="tufFg8tONRUplMRt9rdd-161" value="" style="shape=partialRectangle;collapsible=0;dropTarget=0;pointerEvents=0;fillColor=none;top=0;left=0;bottom=0;right=0;points=[[0,0.5],[1,0.5]];portConstraint=eastwest;shadow=0;fontColor=#030303;strokeColor=#000000;" vertex="1" parent="tufFg8tONRUplMRt9rdd-128">
          <mxGeometry y="120" width="263" height="30" as="geometry" />
        </mxCell>
        <mxCell id="tufFg8tONRUplMRt9rdd-162" value="" style="shape=partialRectangle;connectable=0;fillColor=none;top=0;left=0;bottom=0;right=0;editable=1;overflow=hidden;shadow=0;fontColor=#030303;strokeColor=#000000;" vertex="1" parent="tufFg8tONRUplMRt9rdd-161">
          <mxGeometry width="30" height="30" as="geometry">
            <mxRectangle width="30" height="30" as="alternateBounds" />
          </mxGeometry>
        </mxCell>
        <mxCell id="tufFg8tONRUplMRt9rdd-163" value="updatedAt" style="shape=partialRectangle;connectable=0;fillColor=none;top=0;left=0;bottom=0;right=0;align=left;spacingLeft=6;overflow=hidden;shadow=0;fontColor=#030303;strokeColor=#000000;" vertex="1" parent="tufFg8tONRUplMRt9rdd-161">
          <mxGeometry x="30" width="123" height="30" as="geometry">
            <mxRectangle width="123" height="30" as="alternateBounds" />
          </mxGeometry>
        </mxCell>
        <mxCell id="tufFg8tONRUplMRt9rdd-164" value="timestamp" style="shape=partialRectangle;connectable=0;fillColor=none;top=0;left=0;bottom=0;right=0;align=left;spacingLeft=6;overflow=hidden;shadow=0;fontColor=#030303;strokeColor=#000000;" vertex="1" parent="tufFg8tONRUplMRt9rdd-161">
          <mxGeometry x="153" width="110" height="30" as="geometry">
            <mxRectangle width="110" height="30" as="alternateBounds" />
          </mxGeometry>
        </mxCell>
        <mxCell id="tufFg8tONRUplMRt9rdd-165" style="shape=partialRectangle;collapsible=0;dropTarget=0;pointerEvents=0;fillColor=none;top=0;left=0;bottom=0;right=0;points=[[0,0.5],[1,0.5]];portConstraint=eastwest;shadow=0;fontColor=#030303;strokeColor=#000000;" vertex="1" parent="tufFg8tONRUplMRt9rdd-128">
          <mxGeometry y="150" width="263" height="30" as="geometry" />
        </mxCell>
        <mxCell id="tufFg8tONRUplMRt9rdd-166" style="shape=partialRectangle;connectable=0;fillColor=none;top=0;left=0;bottom=0;right=0;editable=1;overflow=hidden;shadow=0;fontColor=#030303;strokeColor=#000000;" vertex="1" parent="tufFg8tONRUplMRt9rdd-165">
          <mxGeometry width="30" height="30" as="geometry">
            <mxRectangle width="30" height="30" as="alternateBounds" />
          </mxGeometry>
        </mxCell>
        <mxCell id="tufFg8tONRUplMRt9rdd-167" value="createdAt" style="shape=partialRectangle;connectable=0;fillColor=none;top=0;left=0;bottom=0;right=0;align=left;spacingLeft=6;overflow=hidden;shadow=0;fontColor=#030303;strokeColor=#000000;" vertex="1" parent="tufFg8tONRUplMRt9rdd-165">
          <mxGeometry x="30" width="123" height="30" as="geometry">
            <mxRectangle width="123" height="30" as="alternateBounds" />
          </mxGeometry>
        </mxCell>
        <mxCell id="tufFg8tONRUplMRt9rdd-168" value="timestamp" style="shape=partialRectangle;connectable=0;fillColor=none;top=0;left=0;bottom=0;right=0;align=left;spacingLeft=6;overflow=hidden;shadow=0;fontColor=#030303;strokeColor=#000000;" vertex="1" parent="tufFg8tONRUplMRt9rdd-165">
          <mxGeometry x="153" width="110" height="30" as="geometry">
            <mxRectangle width="110" height="30" as="alternateBounds" />
          </mxGeometry>
        </mxCell>
        <mxCell id="tufFg8tONRUplMRt9rdd-169" value="roles" style="shape=table;startSize=30;container=1;collapsible=1;childLayout=tableLayout;fixedRows=1;rowLines=0;fontStyle=1;align=center;resizeLast=1;shadow=0;fontColor=#ffffff;strokeColor=#1C4740;fillColor=#3FA292;swimlaneFillColor=#FFFFFF;" vertex="1" parent="1">
          <mxGeometry x="610" y="450" width="263" height="150" as="geometry" />
        </mxCell>
        <mxCell id="tufFg8tONRUplMRt9rdd-170" value="" style="shape=partialRectangle;collapsible=0;dropTarget=0;pointerEvents=0;fillColor=none;top=0;left=0;bottom=1;right=0;points=[[0,0.5],[1,0.5]];portConstraint=eastwest;shadow=0;fontColor=#030303;strokeColor=#1C4740;" vertex="1" parent="tufFg8tONRUplMRt9rdd-169">
          <mxGeometry y="30" width="263" height="30" as="geometry" />
        </mxCell>
        <mxCell id="tufFg8tONRUplMRt9rdd-171" value="PK" style="shape=partialRectangle;connectable=0;fillColor=none;top=0;left=0;bottom=0;right=0;fontStyle=1;overflow=hidden;shadow=0;fontColor=#030303;strokeColor=#000000;" vertex="1" parent="tufFg8tONRUplMRt9rdd-170">
          <mxGeometry width="30" height="30" as="geometry">
            <mxRectangle width="30" height="30" as="alternateBounds" />
          </mxGeometry>
        </mxCell>
        <mxCell id="tufFg8tONRUplMRt9rdd-172" value="id" style="shape=partialRectangle;connectable=0;fillColor=none;top=0;left=0;bottom=0;right=0;align=left;spacingLeft=6;fontStyle=5;overflow=hidden;shadow=0;fontColor=#030303;strokeColor=#000000;" vertex="1" parent="tufFg8tONRUplMRt9rdd-170">
          <mxGeometry x="30" width="123" height="30" as="geometry">
            <mxRectangle width="123" height="30" as="alternateBounds" />
          </mxGeometry>
        </mxCell>
        <mxCell id="tufFg8tONRUplMRt9rdd-173" value="uuid" style="shape=partialRectangle;connectable=0;fillColor=none;top=0;left=0;bottom=0;right=0;align=left;spacingLeft=6;fontStyle=5;overflow=hidden;shadow=0;fontColor=#030303;strokeColor=#000000;" vertex="1" parent="tufFg8tONRUplMRt9rdd-170">
          <mxGeometry x="153" width="110" height="30" as="geometry">
            <mxRectangle width="110" height="30" as="alternateBounds" />
          </mxGeometry>
        </mxCell>
        <mxCell id="tufFg8tONRUplMRt9rdd-174" style="shape=partialRectangle;collapsible=0;dropTarget=0;pointerEvents=0;fillColor=none;top=0;left=0;bottom=0;right=0;points=[[0,0.5],[1,0.5]];portConstraint=eastwest;shadow=0;fontColor=#030303;strokeColor=#1c4740;" vertex="1" parent="tufFg8tONRUplMRt9rdd-169">
          <mxGeometry y="60" width="263" height="30" as="geometry" />
        </mxCell>
        <mxCell id="tufFg8tONRUplMRt9rdd-175" value="" style="shape=partialRectangle;connectable=0;fillColor=none;top=0;left=0;bottom=0;right=0;editable=1;overflow=hidden;shadow=0;fontColor=#030303;strokeColor=#000000;" vertex="1" parent="tufFg8tONRUplMRt9rdd-174">
          <mxGeometry width="30" height="30" as="geometry">
            <mxRectangle width="30" height="30" as="alternateBounds" />
          </mxGeometry>
        </mxCell>
        <mxCell id="tufFg8tONRUplMRt9rdd-176" value="roles_type" style="shape=partialRectangle;connectable=0;fillColor=none;top=0;left=0;bottom=0;right=0;align=left;spacingLeft=6;overflow=hidden;shadow=0;fontColor=#030303;strokeColor=#000000;" vertex="1" parent="tufFg8tONRUplMRt9rdd-174">
          <mxGeometry x="30" width="123" height="30" as="geometry">
            <mxRectangle width="123" height="30" as="alternateBounds" />
          </mxGeometry>
        </mxCell>
        <mxCell id="tufFg8tONRUplMRt9rdd-177" value="varchar(255)" style="shape=partialRectangle;connectable=0;fillColor=none;top=0;left=0;bottom=0;right=0;align=left;spacingLeft=6;overflow=hidden;shadow=0;fontColor=#030303;strokeColor=#000000;" vertex="1" parent="tufFg8tONRUplMRt9rdd-174">
          <mxGeometry x="153" width="110" height="30" as="geometry">
            <mxRectangle width="110" height="30" as="alternateBounds" />
          </mxGeometry>
        </mxCell>
        <mxCell id="tufFg8tONRUplMRt9rdd-182" value="" style="shape=partialRectangle;collapsible=0;dropTarget=0;pointerEvents=0;fillColor=none;top=0;left=0;bottom=0;right=0;points=[[0,0.5],[1,0.5]];portConstraint=eastwest;shadow=0;fontColor=#030303;strokeColor=#000000;" vertex="1" parent="tufFg8tONRUplMRt9rdd-169">
          <mxGeometry y="90" width="263" height="30" as="geometry" />
        </mxCell>
        <mxCell id="tufFg8tONRUplMRt9rdd-183" value="" style="shape=partialRectangle;connectable=0;fillColor=none;top=0;left=0;bottom=0;right=0;editable=1;overflow=hidden;shadow=0;fontColor=#030303;strokeColor=#000000;" vertex="1" parent="tufFg8tONRUplMRt9rdd-182">
          <mxGeometry width="30" height="30" as="geometry">
            <mxRectangle width="30" height="30" as="alternateBounds" />
          </mxGeometry>
        </mxCell>
        <mxCell id="tufFg8tONRUplMRt9rdd-184" value="updatedAt" style="shape=partialRectangle;connectable=0;fillColor=none;top=0;left=0;bottom=0;right=0;align=left;spacingLeft=6;overflow=hidden;shadow=0;fontColor=#030303;strokeColor=#000000;" vertex="1" parent="tufFg8tONRUplMRt9rdd-182">
          <mxGeometry x="30" width="123" height="30" as="geometry">
            <mxRectangle width="123" height="30" as="alternateBounds" />
          </mxGeometry>
        </mxCell>
        <mxCell id="tufFg8tONRUplMRt9rdd-185" value="timestamp" style="shape=partialRectangle;connectable=0;fillColor=none;top=0;left=0;bottom=0;right=0;align=left;spacingLeft=6;overflow=hidden;shadow=0;fontColor=#030303;strokeColor=#000000;" vertex="1" parent="tufFg8tONRUplMRt9rdd-182">
          <mxGeometry x="153" width="110" height="30" as="geometry">
            <mxRectangle width="110" height="30" as="alternateBounds" />
          </mxGeometry>
        </mxCell>
        <mxCell id="tufFg8tONRUplMRt9rdd-186" style="shape=partialRectangle;collapsible=0;dropTarget=0;pointerEvents=0;fillColor=none;top=0;left=0;bottom=0;right=0;points=[[0,0.5],[1,0.5]];portConstraint=eastwest;shadow=0;fontColor=#030303;strokeColor=#000000;" vertex="1" parent="tufFg8tONRUplMRt9rdd-169">
          <mxGeometry y="120" width="263" height="30" as="geometry" />
        </mxCell>
        <mxCell id="tufFg8tONRUplMRt9rdd-187" style="shape=partialRectangle;connectable=0;fillColor=none;top=0;left=0;bottom=0;right=0;editable=1;overflow=hidden;shadow=0;fontColor=#030303;strokeColor=#000000;" vertex="1" parent="tufFg8tONRUplMRt9rdd-186">
          <mxGeometry width="30" height="30" as="geometry">
            <mxRectangle width="30" height="30" as="alternateBounds" />
          </mxGeometry>
        </mxCell>
        <mxCell id="tufFg8tONRUplMRt9rdd-188" value="createdAt" style="shape=partialRectangle;connectable=0;fillColor=none;top=0;left=0;bottom=0;right=0;align=left;spacingLeft=6;overflow=hidden;shadow=0;fontColor=#030303;strokeColor=#000000;" vertex="1" parent="tufFg8tONRUplMRt9rdd-186">
          <mxGeometry x="30" width="123" height="30" as="geometry">
            <mxRectangle width="123" height="30" as="alternateBounds" />
          </mxGeometry>
        </mxCell>
        <mxCell id="tufFg8tONRUplMRt9rdd-189" value="timestamp" style="shape=partialRectangle;connectable=0;fillColor=none;top=0;left=0;bottom=0;right=0;align=left;spacingLeft=6;overflow=hidden;shadow=0;fontColor=#030303;strokeColor=#000000;" vertex="1" parent="tufFg8tONRUplMRt9rdd-186">
          <mxGeometry x="153" width="110" height="30" as="geometry">
            <mxRectangle width="110" height="30" as="alternateBounds" />
          </mxGeometry>
        </mxCell>
        <mxCell id="tufFg8tONRUplMRt9rdd-190" style="edgeStyle=orthogonalEdgeStyle;rounded=1;orthogonalLoop=1;jettySize=auto;html=1;exitX=1;exitY=0.5;exitDx=0;exitDy=0;entryX=1;entryY=0.5;entryDx=0;entryDy=0;fontSize=12;startArrow=ERmandOne;startFill=0;endArrow=ERoneToMany;endFill=0;" edge="1" parent="1" source="tufFg8tONRUplMRt9rdd-170" target="tufFg8tONRUplMRt9rdd-137">
          <mxGeometry relative="1" as="geometry" />
        </mxCell>
        <mxCell id="tufFg8tONRUplMRt9rdd-191" style="edgeStyle=orthogonalEdgeStyle;rounded=1;orthogonalLoop=1;jettySize=auto;html=1;exitX=1;exitY=0.5;exitDx=0;exitDy=0;entryX=0;entryY=0.5;entryDx=0;entryDy=0;fontSize=12;startArrow=ERmandOne;startFill=0;endArrow=ERoneToMany;endFill=0;" edge="1" parent="1" source="tufFg8tONRUplMRt9rdd-45" target="tufFg8tONRUplMRt9rdd-133">
          <mxGeometry relative="1" as="geometry" />
        </mxCell>
        <mxCell id="tufFg8tONRUplMRt9rdd-192" value="users_groups" style="shape=table;startSize=30;container=1;collapsible=1;childLayout=tableLayout;fixedRows=1;rowLines=0;fontStyle=1;align=center;resizeLast=1;shadow=0;fontColor=#ffffff;strokeColor=#1C4740;fillColor=#3FA292;swimlaneFillColor=#FFFFFF;" vertex="1" parent="1">
          <mxGeometry x="-70" y="240" width="263" height="180" as="geometry" />
        </mxCell>
        <mxCell id="tufFg8tONRUplMRt9rdd-193" value="" style="shape=partialRectangle;collapsible=0;dropTarget=0;pointerEvents=0;fillColor=none;top=0;left=0;bottom=1;right=0;points=[[0,0.5],[1,0.5]];portConstraint=eastwest;shadow=0;fontColor=#030303;strokeColor=#1C4740;" vertex="1" parent="tufFg8tONRUplMRt9rdd-192">
          <mxGeometry y="30" width="263" height="30" as="geometry" />
        </mxCell>
        <mxCell id="tufFg8tONRUplMRt9rdd-194" value="PK" style="shape=partialRectangle;connectable=0;fillColor=none;top=0;left=0;bottom=0;right=0;fontStyle=1;overflow=hidden;shadow=0;fontColor=#030303;strokeColor=#000000;" vertex="1" parent="tufFg8tONRUplMRt9rdd-193">
          <mxGeometry width="30" height="30" as="geometry">
            <mxRectangle width="30" height="30" as="alternateBounds" />
          </mxGeometry>
        </mxCell>
        <mxCell id="tufFg8tONRUplMRt9rdd-195" value="id" style="shape=partialRectangle;connectable=0;fillColor=none;top=0;left=0;bottom=0;right=0;align=left;spacingLeft=6;fontStyle=5;overflow=hidden;shadow=0;fontColor=#030303;strokeColor=#000000;" vertex="1" parent="tufFg8tONRUplMRt9rdd-193">
          <mxGeometry x="30" width="123" height="30" as="geometry">
            <mxRectangle width="123" height="30" as="alternateBounds" />
          </mxGeometry>
        </mxCell>
        <mxCell id="tufFg8tONRUplMRt9rdd-196" value="uuid" style="shape=partialRectangle;connectable=0;fillColor=none;top=0;left=0;bottom=0;right=0;align=left;spacingLeft=6;fontStyle=5;overflow=hidden;shadow=0;fontColor=#030303;strokeColor=#000000;" vertex="1" parent="tufFg8tONRUplMRt9rdd-193">
          <mxGeometry x="153" width="110" height="30" as="geometry">
            <mxRectangle width="110" height="30" as="alternateBounds" />
          </mxGeometry>
        </mxCell>
        <mxCell id="tufFg8tONRUplMRt9rdd-197" style="shape=partialRectangle;collapsible=0;dropTarget=0;pointerEvents=0;fillColor=none;top=0;left=0;bottom=1;right=0;points=[[0,0.5],[1,0.5]];portConstraint=eastwest;shadow=0;fontColor=#030303;strokeColor=#1c4740;perimeterSpacing=1;" vertex="1" parent="tufFg8tONRUplMRt9rdd-192">
          <mxGeometry y="60" width="263" height="30" as="geometry" />
        </mxCell>
        <mxCell id="tufFg8tONRUplMRt9rdd-198" value="FK" style="shape=partialRectangle;connectable=0;fillColor=none;top=0;left=0;bottom=0;right=0;editable=1;overflow=hidden;shadow=0;fontColor=#030303;strokeColor=#000000;fontStyle=1" vertex="1" parent="tufFg8tONRUplMRt9rdd-197">
          <mxGeometry width="30" height="30" as="geometry">
            <mxRectangle width="30" height="30" as="alternateBounds" />
          </mxGeometry>
        </mxCell>
        <mxCell id="tufFg8tONRUplMRt9rdd-199" value="user_id" style="shape=partialRectangle;connectable=0;fillColor=none;top=0;left=0;bottom=0;right=0;align=left;spacingLeft=6;overflow=hidden;shadow=0;fontColor=#030303;strokeColor=#000000;fontStyle=5" vertex="1" parent="tufFg8tONRUplMRt9rdd-197">
          <mxGeometry x="30" width="123" height="30" as="geometry">
            <mxRectangle width="123" height="30" as="alternateBounds" />
          </mxGeometry>
        </mxCell>
        <mxCell id="tufFg8tONRUplMRt9rdd-200" value="uuid" style="shape=partialRectangle;connectable=0;fillColor=none;top=0;left=0;bottom=0;right=0;align=left;spacingLeft=6;overflow=hidden;shadow=0;fontColor=#030303;strokeColor=#000000;fontStyle=5" vertex="1" parent="tufFg8tONRUplMRt9rdd-197">
          <mxGeometry x="153" width="110" height="30" as="geometry">
            <mxRectangle width="110" height="30" as="alternateBounds" />
          </mxGeometry>
        </mxCell>
        <mxCell id="tufFg8tONRUplMRt9rdd-201" style="shape=partialRectangle;collapsible=0;dropTarget=0;pointerEvents=0;fillColor=none;top=0;left=0;bottom=1;right=0;points=[[0,0.5],[1,0.5]];portConstraint=eastwest;shadow=0;fontColor=#030303;strokeColor=#1c4740;" vertex="1" parent="tufFg8tONRUplMRt9rdd-192">
          <mxGeometry y="90" width="263" height="30" as="geometry" />
        </mxCell>
        <mxCell id="tufFg8tONRUplMRt9rdd-202" value="FK" style="shape=partialRectangle;connectable=0;fillColor=none;top=0;left=0;bottom=0;right=0;editable=1;overflow=hidden;shadow=0;fontColor=#030303;strokeColor=#000000;fontStyle=1" vertex="1" parent="tufFg8tONRUplMRt9rdd-201">
          <mxGeometry width="30" height="30" as="geometry">
            <mxRectangle width="30" height="30" as="alternateBounds" />
          </mxGeometry>
        </mxCell>
        <mxCell id="tufFg8tONRUplMRt9rdd-203" value="group_id" style="shape=partialRectangle;connectable=0;fillColor=none;top=0;left=0;bottom=0;right=0;align=left;spacingLeft=6;overflow=hidden;shadow=0;fontColor=#030303;strokeColor=#000000;fontStyle=5" vertex="1" parent="tufFg8tONRUplMRt9rdd-201">
          <mxGeometry x="30" width="123" height="30" as="geometry">
            <mxRectangle width="123" height="30" as="alternateBounds" />
          </mxGeometry>
        </mxCell>
        <mxCell id="tufFg8tONRUplMRt9rdd-204" value="uuid" style="shape=partialRectangle;connectable=0;fillColor=none;top=0;left=0;bottom=0;right=0;align=left;spacingLeft=6;overflow=hidden;shadow=0;fontColor=#030303;strokeColor=#000000;fontStyle=5" vertex="1" parent="tufFg8tONRUplMRt9rdd-201">
          <mxGeometry x="153" width="110" height="30" as="geometry">
            <mxRectangle width="110" height="30" as="alternateBounds" />
          </mxGeometry>
        </mxCell>
        <mxCell id="tufFg8tONRUplMRt9rdd-225" value="" style="shape=partialRectangle;collapsible=0;dropTarget=0;pointerEvents=0;fillColor=none;top=0;left=0;bottom=0;right=0;points=[[0,0.5],[1,0.5]];portConstraint=eastwest;shadow=0;fontColor=#030303;strokeColor=#000000;" vertex="1" parent="tufFg8tONRUplMRt9rdd-192">
          <mxGeometry y="120" width="263" height="30" as="geometry" />
        </mxCell>
        <mxCell id="tufFg8tONRUplMRt9rdd-226" value="" style="shape=partialRectangle;connectable=0;fillColor=none;top=0;left=0;bottom=0;right=0;editable=1;overflow=hidden;shadow=0;fontColor=#030303;strokeColor=#000000;" vertex="1" parent="tufFg8tONRUplMRt9rdd-225">
          <mxGeometry width="30" height="30" as="geometry">
            <mxRectangle width="30" height="30" as="alternateBounds" />
          </mxGeometry>
        </mxCell>
        <mxCell id="tufFg8tONRUplMRt9rdd-227" value="updatedAt" style="shape=partialRectangle;connectable=0;fillColor=none;top=0;left=0;bottom=0;right=0;align=left;spacingLeft=6;overflow=hidden;shadow=0;fontColor=#030303;strokeColor=#000000;" vertex="1" parent="tufFg8tONRUplMRt9rdd-225">
          <mxGeometry x="30" width="123" height="30" as="geometry">
            <mxRectangle width="123" height="30" as="alternateBounds" />
          </mxGeometry>
        </mxCell>
        <mxCell id="tufFg8tONRUplMRt9rdd-228" value="timestamp" style="shape=partialRectangle;connectable=0;fillColor=none;top=0;left=0;bottom=0;right=0;align=left;spacingLeft=6;overflow=hidden;shadow=0;fontColor=#030303;strokeColor=#000000;" vertex="1" parent="tufFg8tONRUplMRt9rdd-225">
          <mxGeometry x="153" width="110" height="30" as="geometry">
            <mxRectangle width="110" height="30" as="alternateBounds" />
          </mxGeometry>
        </mxCell>
        <mxCell id="tufFg8tONRUplMRt9rdd-229" style="shape=partialRectangle;collapsible=0;dropTarget=0;pointerEvents=0;fillColor=none;top=0;left=0;bottom=0;right=0;points=[[0,0.5],[1,0.5]];portConstraint=eastwest;shadow=0;fontColor=#030303;strokeColor=#000000;" vertex="1" parent="tufFg8tONRUplMRt9rdd-192">
          <mxGeometry y="150" width="263" height="30" as="geometry" />
        </mxCell>
        <mxCell id="tufFg8tONRUplMRt9rdd-230" style="shape=partialRectangle;connectable=0;fillColor=none;top=0;left=0;bottom=0;right=0;editable=1;overflow=hidden;shadow=0;fontColor=#030303;strokeColor=#000000;" vertex="1" parent="tufFg8tONRUplMRt9rdd-229">
          <mxGeometry width="30" height="30" as="geometry">
            <mxRectangle width="30" height="30" as="alternateBounds" />
          </mxGeometry>
        </mxCell>
        <mxCell id="tufFg8tONRUplMRt9rdd-231" value="createdAt" style="shape=partialRectangle;connectable=0;fillColor=none;top=0;left=0;bottom=0;right=0;align=left;spacingLeft=6;overflow=hidden;shadow=0;fontColor=#030303;strokeColor=#000000;" vertex="1" parent="tufFg8tONRUplMRt9rdd-229">
          <mxGeometry x="30" width="123" height="30" as="geometry">
            <mxRectangle width="123" height="30" as="alternateBounds" />
          </mxGeometry>
        </mxCell>
        <mxCell id="tufFg8tONRUplMRt9rdd-232" value="timestamp" style="shape=partialRectangle;connectable=0;fillColor=none;top=0;left=0;bottom=0;right=0;align=left;spacingLeft=6;overflow=hidden;shadow=0;fontColor=#030303;strokeColor=#000000;" vertex="1" parent="tufFg8tONRUplMRt9rdd-229">
          <mxGeometry x="153" width="110" height="30" as="geometry">
            <mxRectangle width="110" height="30" as="alternateBounds" />
          </mxGeometry>
        </mxCell>
        <mxCell id="tufFg8tONRUplMRt9rdd-233" style="edgeStyle=orthogonalEdgeStyle;rounded=1;orthogonalLoop=1;jettySize=auto;html=1;exitX=0;exitY=0.5;exitDx=0;exitDy=0;entryX=1;entryY=0.5;entryDx=0;entryDy=0;fontSize=12;startArrow=ERmandOne;startFill=0;endArrow=ERoneToMany;endFill=0;" edge="1" parent="1" source="tufFg8tONRUplMRt9rdd-45" target="tufFg8tONRUplMRt9rdd-197">
          <mxGeometry relative="1" as="geometry" />
        </mxCell>
        <mxCell id="tufFg8tONRUplMRt9rdd-234" value="groups" style="shape=table;startSize=30;container=1;collapsible=1;childLayout=tableLayout;fixedRows=1;rowLines=0;fontStyle=1;align=center;resizeLast=1;shadow=0;fontColor=#ffffff;strokeColor=#0E4F7A;fillColor=#1369A2;swimlaneFillColor=#FFFFFF;" vertex="1" parent="1">
          <mxGeometry x="-70" y="450" width="263" height="270" as="geometry" />
        </mxCell>
        <mxCell id="tufFg8tONRUplMRt9rdd-235" value="" style="shape=partialRectangle;collapsible=0;dropTarget=0;pointerEvents=0;fillColor=none;top=0;left=0;bottom=1;right=0;points=[[0,0.5],[1,0.5]];portConstraint=eastwest;shadow=0;fontColor=#030303;strokeColor=#0E4F7A;" vertex="1" parent="tufFg8tONRUplMRt9rdd-234">
          <mxGeometry y="30" width="263" height="30" as="geometry" />
        </mxCell>
        <mxCell id="tufFg8tONRUplMRt9rdd-236" value="PK" style="shape=partialRectangle;connectable=0;fillColor=none;top=0;left=0;bottom=0;right=0;fontStyle=1;overflow=hidden;shadow=0;fontColor=#030303;strokeColor=#000000;" vertex="1" parent="tufFg8tONRUplMRt9rdd-235">
          <mxGeometry width="30" height="30" as="geometry">
            <mxRectangle width="30" height="30" as="alternateBounds" />
          </mxGeometry>
        </mxCell>
        <mxCell id="tufFg8tONRUplMRt9rdd-237" value="id" style="shape=partialRectangle;connectable=0;fillColor=none;top=0;left=0;bottom=0;right=0;align=left;spacingLeft=6;fontStyle=5;overflow=hidden;shadow=0;fontColor=#030303;strokeColor=#000000;" vertex="1" parent="tufFg8tONRUplMRt9rdd-235">
          <mxGeometry x="30" width="123" height="30" as="geometry">
            <mxRectangle width="123" height="30" as="alternateBounds" />
          </mxGeometry>
        </mxCell>
        <mxCell id="tufFg8tONRUplMRt9rdd-238" value="uuid" style="shape=partialRectangle;connectable=0;fillColor=none;top=0;left=0;bottom=0;right=0;align=left;spacingLeft=6;fontStyle=5;overflow=hidden;shadow=0;fontColor=#030303;strokeColor=#000000;" vertex="1" parent="tufFg8tONRUplMRt9rdd-235">
          <mxGeometry x="153" width="110" height="30" as="geometry">
            <mxRectangle width="110" height="30" as="alternateBounds" />
          </mxGeometry>
        </mxCell>
        <mxCell id="tufFg8tONRUplMRt9rdd-243" style="shape=partialRectangle;collapsible=0;dropTarget=0;pointerEvents=0;fillColor=none;top=0;left=0;bottom=1;right=0;points=[[0,0.5],[1,0.5]];portConstraint=eastwest;shadow=0;fontColor=#030303;strokeColor=#0E4F7A;" vertex="1" parent="tufFg8tONRUplMRt9rdd-234">
          <mxGeometry y="60" width="263" height="30" as="geometry" />
        </mxCell>
        <mxCell id="tufFg8tONRUplMRt9rdd-244" value="FK" style="shape=partialRectangle;connectable=0;fillColor=none;top=0;left=0;bottom=0;right=0;editable=1;overflow=hidden;shadow=0;fontColor=#030303;strokeColor=#000000;fontStyle=5" vertex="1" parent="tufFg8tONRUplMRt9rdd-243">
          <mxGeometry width="30" height="30" as="geometry">
            <mxRectangle width="30" height="30" as="alternateBounds" />
          </mxGeometry>
        </mxCell>
        <mxCell id="tufFg8tONRUplMRt9rdd-245" value="group_id" style="shape=partialRectangle;connectable=0;fillColor=none;top=0;left=0;bottom=0;right=0;align=left;spacingLeft=6;overflow=hidden;shadow=0;fontColor=#030303;strokeColor=#000000;fontStyle=5" vertex="1" parent="tufFg8tONRUplMRt9rdd-243">
          <mxGeometry x="30" width="123" height="30" as="geometry">
            <mxRectangle width="123" height="30" as="alternateBounds" />
          </mxGeometry>
        </mxCell>
        <mxCell id="tufFg8tONRUplMRt9rdd-246" value="uuid" style="shape=partialRectangle;connectable=0;fillColor=none;top=0;left=0;bottom=0;right=0;align=left;spacingLeft=6;overflow=hidden;shadow=0;fontColor=#030303;strokeColor=#000000;fontStyle=5" vertex="1" parent="tufFg8tONRUplMRt9rdd-243">
          <mxGeometry x="153" width="110" height="30" as="geometry">
            <mxRectangle width="110" height="30" as="alternateBounds" />
          </mxGeometry>
        </mxCell>
        <mxCell id="tufFg8tONRUplMRt9rdd-263" value="" style="shape=partialRectangle;collapsible=0;dropTarget=0;pointerEvents=0;fillColor=none;top=0;left=0;bottom=0;right=0;points=[[0,0.5],[1,0.5]];portConstraint=eastwest;shadow=0;fontColor=#030303;strokeColor=#000000;" vertex="1" parent="tufFg8tONRUplMRt9rdd-234">
          <mxGeometry y="90" width="263" height="30" as="geometry" />
        </mxCell>
        <mxCell id="tufFg8tONRUplMRt9rdd-264" value="" style="shape=partialRectangle;connectable=0;fillColor=none;top=0;left=0;bottom=0;right=0;editable=1;overflow=hidden;shadow=0;fontColor=#030303;strokeColor=#000000;" vertex="1" parent="tufFg8tONRUplMRt9rdd-263">
          <mxGeometry width="30" height="30" as="geometry">
            <mxRectangle width="30" height="30" as="alternateBounds" />
          </mxGeometry>
        </mxCell>
        <mxCell id="tufFg8tONRUplMRt9rdd-265" value="name" style="shape=partialRectangle;connectable=0;fillColor=none;top=0;left=0;bottom=0;right=0;align=left;spacingLeft=6;overflow=hidden;shadow=0;fontColor=#030303;strokeColor=#000000;" vertex="1" parent="tufFg8tONRUplMRt9rdd-263">
          <mxGeometry x="30" width="123" height="30" as="geometry">
            <mxRectangle width="123" height="30" as="alternateBounds" />
          </mxGeometry>
        </mxCell>
        <mxCell id="tufFg8tONRUplMRt9rdd-266" value="varchar(255)" style="shape=partialRectangle;connectable=0;fillColor=none;top=0;left=0;bottom=0;right=0;align=left;spacingLeft=6;overflow=hidden;shadow=0;fontColor=#030303;strokeColor=#000000;" vertex="1" parent="tufFg8tONRUplMRt9rdd-263">
          <mxGeometry x="153" width="110" height="30" as="geometry">
            <mxRectangle width="110" height="30" as="alternateBounds" />
          </mxGeometry>
        </mxCell>
        <mxCell id="tufFg8tONRUplMRt9rdd-267" value="" style="shape=partialRectangle;collapsible=0;dropTarget=0;pointerEvents=0;fillColor=none;top=0;left=0;bottom=0;right=0;points=[[0,0.5],[1,0.5]];portConstraint=eastwest;shadow=0;fontColor=#030303;strokeColor=#000000;" vertex="1" parent="tufFg8tONRUplMRt9rdd-234">
          <mxGeometry y="120" width="263" height="30" as="geometry" />
        </mxCell>
        <mxCell id="tufFg8tONRUplMRt9rdd-268" value="" style="shape=partialRectangle;connectable=0;fillColor=none;top=0;left=0;bottom=0;right=0;editable=1;overflow=hidden;shadow=0;fontColor=#030303;strokeColor=#000000;" vertex="1" parent="tufFg8tONRUplMRt9rdd-267">
          <mxGeometry width="30" height="30" as="geometry">
            <mxRectangle width="30" height="30" as="alternateBounds" />
          </mxGeometry>
        </mxCell>
        <mxCell id="tufFg8tONRUplMRt9rdd-269" value="short_name" style="shape=partialRectangle;connectable=0;fillColor=none;top=0;left=0;bottom=0;right=0;align=left;spacingLeft=6;overflow=hidden;shadow=0;fontColor=#030303;strokeColor=#000000;" vertex="1" parent="tufFg8tONRUplMRt9rdd-267">
          <mxGeometry x="30" width="123" height="30" as="geometry">
            <mxRectangle width="123" height="30" as="alternateBounds" />
          </mxGeometry>
        </mxCell>
        <mxCell id="tufFg8tONRUplMRt9rdd-270" value="varchar(255)" style="shape=partialRectangle;connectable=0;fillColor=none;top=0;left=0;bottom=0;right=0;align=left;spacingLeft=6;overflow=hidden;shadow=0;fontColor=#030303;strokeColor=#000000;" vertex="1" parent="tufFg8tONRUplMRt9rdd-267">
          <mxGeometry x="153" width="110" height="30" as="geometry">
            <mxRectangle width="110" height="30" as="alternateBounds" />
          </mxGeometry>
        </mxCell>
        <mxCell id="tufFg8tONRUplMRt9rdd-271" value="" style="shape=partialRectangle;collapsible=0;dropTarget=0;pointerEvents=0;fillColor=none;top=0;left=0;bottom=0;right=0;points=[[0,0.5],[1,0.5]];portConstraint=eastwest;shadow=0;fontColor=#030303;strokeColor=#000000;" vertex="1" parent="tufFg8tONRUplMRt9rdd-234">
          <mxGeometry y="150" width="263" height="30" as="geometry" />
        </mxCell>
        <mxCell id="tufFg8tONRUplMRt9rdd-272" value="" style="shape=partialRectangle;connectable=0;fillColor=none;top=0;left=0;bottom=0;right=0;editable=1;overflow=hidden;shadow=0;fontColor=#030303;strokeColor=#000000;" vertex="1" parent="tufFg8tONRUplMRt9rdd-271">
          <mxGeometry width="30" height="30" as="geometry">
            <mxRectangle width="30" height="30" as="alternateBounds" />
          </mxGeometry>
        </mxCell>
        <mxCell id="tufFg8tONRUplMRt9rdd-273" value="deactivated" style="shape=partialRectangle;connectable=0;fillColor=none;top=0;left=0;bottom=0;right=0;align=left;spacingLeft=6;overflow=hidden;shadow=0;fontColor=#030303;strokeColor=#000000;" vertex="1" parent="tufFg8tONRUplMRt9rdd-271">
          <mxGeometry x="30" width="123" height="30" as="geometry">
            <mxRectangle width="123" height="30" as="alternateBounds" />
          </mxGeometry>
        </mxCell>
        <mxCell id="tufFg8tONRUplMRt9rdd-274" value="boolean" style="shape=partialRectangle;connectable=0;fillColor=none;top=0;left=0;bottom=0;right=0;align=left;spacingLeft=6;overflow=hidden;shadow=0;fontColor=#030303;strokeColor=#000000;" vertex="1" parent="tufFg8tONRUplMRt9rdd-271">
          <mxGeometry x="153" width="110" height="30" as="geometry">
            <mxRectangle width="110" height="30" as="alternateBounds" />
          </mxGeometry>
        </mxCell>
        <mxCell id="tufFg8tONRUplMRt9rdd-259" value="" style="shape=partialRectangle;collapsible=0;dropTarget=0;pointerEvents=0;fillColor=none;top=0;left=0;bottom=0;right=0;points=[[0,0.5],[1,0.5]];portConstraint=eastwest;shadow=0;fontColor=#030303;strokeColor=#000000;" vertex="1" parent="tufFg8tONRUplMRt9rdd-234">
          <mxGeometry y="180" width="263" height="30" as="geometry" />
        </mxCell>
        <mxCell id="tufFg8tONRUplMRt9rdd-260" value="" style="shape=partialRectangle;connectable=0;fillColor=none;top=0;left=0;bottom=0;right=0;editable=1;overflow=hidden;shadow=0;fontColor=#030303;strokeColor=#000000;" vertex="1" parent="tufFg8tONRUplMRt9rdd-259">
          <mxGeometry width="30" height="30" as="geometry">
            <mxRectangle width="30" height="30" as="alternateBounds" />
          </mxGeometry>
        </mxCell>
        <mxCell id="tufFg8tONRUplMRt9rdd-261" value="archived" style="shape=partialRectangle;connectable=0;fillColor=none;top=0;left=0;bottom=0;right=0;align=left;spacingLeft=6;overflow=hidden;shadow=0;fontColor=#030303;strokeColor=#000000;" vertex="1" parent="tufFg8tONRUplMRt9rdd-259">
          <mxGeometry x="30" width="123" height="30" as="geometry">
            <mxRectangle width="123" height="30" as="alternateBounds" />
          </mxGeometry>
        </mxCell>
        <mxCell id="tufFg8tONRUplMRt9rdd-262" value="boolean" style="shape=partialRectangle;connectable=0;fillColor=none;top=0;left=0;bottom=0;right=0;align=left;spacingLeft=6;overflow=hidden;shadow=0;fontColor=#030303;strokeColor=#000000;" vertex="1" parent="tufFg8tONRUplMRt9rdd-259">
          <mxGeometry x="153" width="110" height="30" as="geometry">
            <mxRectangle width="110" height="30" as="alternateBounds" />
          </mxGeometry>
        </mxCell>
        <mxCell id="tufFg8tONRUplMRt9rdd-247" value="" style="shape=partialRectangle;collapsible=0;dropTarget=0;pointerEvents=0;fillColor=none;top=0;left=0;bottom=0;right=0;points=[[0,0.5],[1,0.5]];portConstraint=eastwest;shadow=0;fontColor=#030303;strokeColor=#000000;" vertex="1" parent="tufFg8tONRUplMRt9rdd-234">
          <mxGeometry y="210" width="263" height="30" as="geometry" />
        </mxCell>
        <mxCell id="tufFg8tONRUplMRt9rdd-248" value="" style="shape=partialRectangle;connectable=0;fillColor=none;top=0;left=0;bottom=0;right=0;editable=1;overflow=hidden;shadow=0;fontColor=#030303;strokeColor=#000000;" vertex="1" parent="tufFg8tONRUplMRt9rdd-247">
          <mxGeometry width="30" height="30" as="geometry">
            <mxRectangle width="30" height="30" as="alternateBounds" />
          </mxGeometry>
        </mxCell>
        <mxCell id="tufFg8tONRUplMRt9rdd-249" value="updatedAt" style="shape=partialRectangle;connectable=0;fillColor=none;top=0;left=0;bottom=0;right=0;align=left;spacingLeft=6;overflow=hidden;shadow=0;fontColor=#030303;strokeColor=#000000;" vertex="1" parent="tufFg8tONRUplMRt9rdd-247">
          <mxGeometry x="30" width="123" height="30" as="geometry">
            <mxRectangle width="123" height="30" as="alternateBounds" />
          </mxGeometry>
        </mxCell>
        <mxCell id="tufFg8tONRUplMRt9rdd-250" value="timestamp" style="shape=partialRectangle;connectable=0;fillColor=none;top=0;left=0;bottom=0;right=0;align=left;spacingLeft=6;overflow=hidden;shadow=0;fontColor=#030303;strokeColor=#000000;" vertex="1" parent="tufFg8tONRUplMRt9rdd-247">
          <mxGeometry x="153" width="110" height="30" as="geometry">
            <mxRectangle width="110" height="30" as="alternateBounds" />
          </mxGeometry>
        </mxCell>
        <mxCell id="tufFg8tONRUplMRt9rdd-251" style="shape=partialRectangle;collapsible=0;dropTarget=0;pointerEvents=0;fillColor=none;top=0;left=0;bottom=0;right=0;points=[[0,0.5],[1,0.5]];portConstraint=eastwest;shadow=0;fontColor=#030303;strokeColor=#000000;" vertex="1" parent="tufFg8tONRUplMRt9rdd-234">
          <mxGeometry y="240" width="263" height="30" as="geometry" />
        </mxCell>
        <mxCell id="tufFg8tONRUplMRt9rdd-252" style="shape=partialRectangle;connectable=0;fillColor=none;top=0;left=0;bottom=0;right=0;editable=1;overflow=hidden;shadow=0;fontColor=#030303;strokeColor=#000000;" vertex="1" parent="tufFg8tONRUplMRt9rdd-251">
          <mxGeometry width="30" height="30" as="geometry">
            <mxRectangle width="30" height="30" as="alternateBounds" />
          </mxGeometry>
        </mxCell>
        <mxCell id="tufFg8tONRUplMRt9rdd-253" value="createdAt" style="shape=partialRectangle;connectable=0;fillColor=none;top=0;left=0;bottom=0;right=0;align=left;spacingLeft=6;overflow=hidden;shadow=0;fontColor=#030303;strokeColor=#000000;" vertex="1" parent="tufFg8tONRUplMRt9rdd-251">
          <mxGeometry x="30" width="123" height="30" as="geometry">
            <mxRectangle width="123" height="30" as="alternateBounds" />
          </mxGeometry>
        </mxCell>
        <mxCell id="tufFg8tONRUplMRt9rdd-254" value="timestamp" style="shape=partialRectangle;connectable=0;fillColor=none;top=0;left=0;bottom=0;right=0;align=left;spacingLeft=6;overflow=hidden;shadow=0;fontColor=#030303;strokeColor=#000000;" vertex="1" parent="tufFg8tONRUplMRt9rdd-251">
          <mxGeometry x="153" width="110" height="30" as="geometry">
            <mxRectangle width="110" height="30" as="alternateBounds" />
          </mxGeometry>
        </mxCell>
        <mxCell id="tufFg8tONRUplMRt9rdd-275" style="edgeStyle=orthogonalEdgeStyle;rounded=1;orthogonalLoop=1;jettySize=auto;html=1;exitX=1;exitY=0.5;exitDx=0;exitDy=0;entryX=0;entryY=0.5;entryDx=0;entryDy=0;fontSize=12;startArrow=ERmandOne;startFill=0;endArrow=ERoneToMany;endFill=0;" edge="1" parent="1" source="tufFg8tONRUplMRt9rdd-243" target="tufFg8tONRUplMRt9rdd-201">
          <mxGeometry relative="1" as="geometry" />
        </mxCell>
        <mxCell id="tufFg8tONRUplMRt9rdd-276" value="groups_types" style="shape=table;startSize=30;container=1;collapsible=1;childLayout=tableLayout;fixedRows=1;rowLines=0;fontStyle=1;align=center;resizeLast=1;shadow=0;fontColor=#ffffff;strokeColor=#0E4F7A;fillColor=#1369A2;swimlaneFillColor=#FFFFFF;" vertex="1" parent="1">
          <mxGeometry x="-70" y="750" width="263" height="210" as="geometry" />
        </mxCell>
        <mxCell id="tufFg8tONRUplMRt9rdd-277" value="" style="shape=partialRectangle;collapsible=0;dropTarget=0;pointerEvents=0;fillColor=none;top=0;left=0;bottom=1;right=0;points=[[0,0.5],[1,0.5]];portConstraint=eastwest;shadow=0;fontColor=#030303;strokeColor=#0E4F7A;" vertex="1" parent="tufFg8tONRUplMRt9rdd-276">
          <mxGeometry y="30" width="263" height="30" as="geometry" />
        </mxCell>
        <mxCell id="tufFg8tONRUplMRt9rdd-278" value="PK" style="shape=partialRectangle;connectable=0;fillColor=none;top=0;left=0;bottom=0;right=0;fontStyle=1;overflow=hidden;shadow=0;fontColor=#030303;strokeColor=#000000;" vertex="1" parent="tufFg8tONRUplMRt9rdd-277">
          <mxGeometry width="30" height="30" as="geometry">
            <mxRectangle width="30" height="30" as="alternateBounds" />
          </mxGeometry>
        </mxCell>
        <mxCell id="tufFg8tONRUplMRt9rdd-279" value="id" style="shape=partialRectangle;connectable=0;fillColor=none;top=0;left=0;bottom=0;right=0;align=left;spacingLeft=6;fontStyle=5;overflow=hidden;shadow=0;fontColor=#030303;strokeColor=#000000;" vertex="1" parent="tufFg8tONRUplMRt9rdd-277">
          <mxGeometry x="30" width="123" height="30" as="geometry">
            <mxRectangle width="123" height="30" as="alternateBounds" />
          </mxGeometry>
        </mxCell>
        <mxCell id="tufFg8tONRUplMRt9rdd-280" value="uuid" style="shape=partialRectangle;connectable=0;fillColor=none;top=0;left=0;bottom=0;right=0;align=left;spacingLeft=6;fontStyle=5;overflow=hidden;shadow=0;fontColor=#030303;strokeColor=#000000;" vertex="1" parent="tufFg8tONRUplMRt9rdd-277">
          <mxGeometry x="153" width="110" height="30" as="geometry">
            <mxRectangle width="110" height="30" as="alternateBounds" />
          </mxGeometry>
        </mxCell>
        <mxCell id="tufFg8tONRUplMRt9rdd-281" style="shape=partialRectangle;collapsible=0;dropTarget=0;pointerEvents=0;fillColor=none;top=0;left=0;bottom=1;right=0;points=[[0,0.5],[1,0.5]];portConstraint=eastwest;shadow=0;fontColor=#030303;strokeColor=#0E4F7A;" vertex="1" parent="tufFg8tONRUplMRt9rdd-276">
          <mxGeometry y="60" width="263" height="30" as="geometry" />
        </mxCell>
        <mxCell id="tufFg8tONRUplMRt9rdd-282" value="FK" style="shape=partialRectangle;connectable=0;fillColor=none;top=0;left=0;bottom=0;right=0;editable=1;overflow=hidden;shadow=0;fontColor=#030303;strokeColor=#000000;fontStyle=5" vertex="1" parent="tufFg8tONRUplMRt9rdd-281">
          <mxGeometry width="30" height="30" as="geometry">
            <mxRectangle width="30" height="30" as="alternateBounds" />
          </mxGeometry>
        </mxCell>
        <mxCell id="tufFg8tONRUplMRt9rdd-283" value="group_id" style="shape=partialRectangle;connectable=0;fillColor=none;top=0;left=0;bottom=0;right=0;align=left;spacingLeft=6;overflow=hidden;shadow=0;fontColor=#030303;strokeColor=#000000;fontStyle=5" vertex="1" parent="tufFg8tONRUplMRt9rdd-281">
          <mxGeometry x="30" width="123" height="30" as="geometry">
            <mxRectangle width="123" height="30" as="alternateBounds" />
          </mxGeometry>
        </mxCell>
        <mxCell id="tufFg8tONRUplMRt9rdd-284" value="uuid" style="shape=partialRectangle;connectable=0;fillColor=none;top=0;left=0;bottom=0;right=0;align=left;spacingLeft=6;overflow=hidden;shadow=0;fontColor=#030303;strokeColor=#000000;fontStyle=5" vertex="1" parent="tufFg8tONRUplMRt9rdd-281">
          <mxGeometry x="153" width="110" height="30" as="geometry">
            <mxRectangle width="110" height="30" as="alternateBounds" />
          </mxGeometry>
        </mxCell>
        <mxCell id="tufFg8tONRUplMRt9rdd-285" value="" style="shape=partialRectangle;collapsible=0;dropTarget=0;pointerEvents=0;fillColor=none;top=0;left=0;bottom=0;right=0;points=[[0,0.5],[1,0.5]];portConstraint=eastwest;shadow=0;fontColor=#030303;strokeColor=#000000;" vertex="1" parent="tufFg8tONRUplMRt9rdd-276">
          <mxGeometry y="90" width="263" height="30" as="geometry" />
        </mxCell>
        <mxCell id="tufFg8tONRUplMRt9rdd-286" value="" style="shape=partialRectangle;connectable=0;fillColor=none;top=0;left=0;bottom=0;right=0;editable=1;overflow=hidden;shadow=0;fontColor=#030303;strokeColor=#000000;" vertex="1" parent="tufFg8tONRUplMRt9rdd-285">
          <mxGeometry width="30" height="30" as="geometry">
            <mxRectangle width="30" height="30" as="alternateBounds" />
          </mxGeometry>
        </mxCell>
        <mxCell id="tufFg8tONRUplMRt9rdd-287" value="name" style="shape=partialRectangle;connectable=0;fillColor=none;top=0;left=0;bottom=0;right=0;align=left;spacingLeft=6;overflow=hidden;shadow=0;fontColor=#030303;strokeColor=#000000;" vertex="1" parent="tufFg8tONRUplMRt9rdd-285">
          <mxGeometry x="30" width="123" height="30" as="geometry">
            <mxRectangle width="123" height="30" as="alternateBounds" />
          </mxGeometry>
        </mxCell>
        <mxCell id="tufFg8tONRUplMRt9rdd-288" value="varchar(255)" style="shape=partialRectangle;connectable=0;fillColor=none;top=0;left=0;bottom=0;right=0;align=left;spacingLeft=6;overflow=hidden;shadow=0;fontColor=#030303;strokeColor=#000000;" vertex="1" parent="tufFg8tONRUplMRt9rdd-285">
          <mxGeometry x="153" width="110" height="30" as="geometry">
            <mxRectangle width="110" height="30" as="alternateBounds" />
          </mxGeometry>
        </mxCell>
        <mxCell id="tufFg8tONRUplMRt9rdd-289" value="" style="shape=partialRectangle;collapsible=0;dropTarget=0;pointerEvents=0;fillColor=none;top=0;left=0;bottom=0;right=0;points=[[0,0.5],[1,0.5]];portConstraint=eastwest;shadow=0;fontColor=#030303;strokeColor=#000000;" vertex="1" parent="tufFg8tONRUplMRt9rdd-276">
          <mxGeometry y="120" width="263" height="30" as="geometry" />
        </mxCell>
        <mxCell id="tufFg8tONRUplMRt9rdd-290" value="" style="shape=partialRectangle;connectable=0;fillColor=none;top=0;left=0;bottom=0;right=0;editable=1;overflow=hidden;shadow=0;fontColor=#030303;strokeColor=#000000;" vertex="1" parent="tufFg8tONRUplMRt9rdd-289">
          <mxGeometry width="30" height="30" as="geometry">
            <mxRectangle width="30" height="30" as="alternateBounds" />
          </mxGeometry>
        </mxCell>
        <mxCell id="tufFg8tONRUplMRt9rdd-291" value="type" style="shape=partialRectangle;connectable=0;fillColor=none;top=0;left=0;bottom=0;right=0;align=left;spacingLeft=6;overflow=hidden;shadow=0;fontColor=#030303;strokeColor=#000000;" vertex="1" parent="tufFg8tONRUplMRt9rdd-289">
          <mxGeometry x="30" width="123" height="30" as="geometry">
            <mxRectangle width="123" height="30" as="alternateBounds" />
          </mxGeometry>
        </mxCell>
        <mxCell id="tufFg8tONRUplMRt9rdd-292" value="varchar(255)" style="shape=partialRectangle;connectable=0;fillColor=none;top=0;left=0;bottom=0;right=0;align=left;spacingLeft=6;overflow=hidden;shadow=0;fontColor=#030303;strokeColor=#000000;" vertex="1" parent="tufFg8tONRUplMRt9rdd-289">
          <mxGeometry x="153" width="110" height="30" as="geometry">
            <mxRectangle width="110" height="30" as="alternateBounds" />
          </mxGeometry>
        </mxCell>
        <mxCell id="tufFg8tONRUplMRt9rdd-301" value="" style="shape=partialRectangle;collapsible=0;dropTarget=0;pointerEvents=0;fillColor=none;top=0;left=0;bottom=0;right=0;points=[[0,0.5],[1,0.5]];portConstraint=eastwest;shadow=0;fontColor=#030303;strokeColor=#000000;" vertex="1" parent="tufFg8tONRUplMRt9rdd-276">
          <mxGeometry y="150" width="263" height="30" as="geometry" />
        </mxCell>
        <mxCell id="tufFg8tONRUplMRt9rdd-302" value="" style="shape=partialRectangle;connectable=0;fillColor=none;top=0;left=0;bottom=0;right=0;editable=1;overflow=hidden;shadow=0;fontColor=#030303;strokeColor=#000000;" vertex="1" parent="tufFg8tONRUplMRt9rdd-301">
          <mxGeometry width="30" height="30" as="geometry">
            <mxRectangle width="30" height="30" as="alternateBounds" />
          </mxGeometry>
        </mxCell>
        <mxCell id="tufFg8tONRUplMRt9rdd-303" value="updatedAt" style="shape=partialRectangle;connectable=0;fillColor=none;top=0;left=0;bottom=0;right=0;align=left;spacingLeft=6;overflow=hidden;shadow=0;fontColor=#030303;strokeColor=#000000;" vertex="1" parent="tufFg8tONRUplMRt9rdd-301">
          <mxGeometry x="30" width="123" height="30" as="geometry">
            <mxRectangle width="123" height="30" as="alternateBounds" />
          </mxGeometry>
        </mxCell>
        <mxCell id="tufFg8tONRUplMRt9rdd-304" value="timestamp" style="shape=partialRectangle;connectable=0;fillColor=none;top=0;left=0;bottom=0;right=0;align=left;spacingLeft=6;overflow=hidden;shadow=0;fontColor=#030303;strokeColor=#000000;" vertex="1" parent="tufFg8tONRUplMRt9rdd-301">
          <mxGeometry x="153" width="110" height="30" as="geometry">
            <mxRectangle width="110" height="30" as="alternateBounds" />
          </mxGeometry>
        </mxCell>
        <mxCell id="tufFg8tONRUplMRt9rdd-305" style="shape=partialRectangle;collapsible=0;dropTarget=0;pointerEvents=0;fillColor=none;top=0;left=0;bottom=0;right=0;points=[[0,0.5],[1,0.5]];portConstraint=eastwest;shadow=0;fontColor=#030303;strokeColor=#000000;" vertex="1" parent="tufFg8tONRUplMRt9rdd-276">
          <mxGeometry y="180" width="263" height="30" as="geometry" />
        </mxCell>
        <mxCell id="tufFg8tONRUplMRt9rdd-306" style="shape=partialRectangle;connectable=0;fillColor=none;top=0;left=0;bottom=0;right=0;editable=1;overflow=hidden;shadow=0;fontColor=#030303;strokeColor=#000000;" vertex="1" parent="tufFg8tONRUplMRt9rdd-305">
          <mxGeometry width="30" height="30" as="geometry">
            <mxRectangle width="30" height="30" as="alternateBounds" />
          </mxGeometry>
        </mxCell>
        <mxCell id="tufFg8tONRUplMRt9rdd-307" value="createdAt" style="shape=partialRectangle;connectable=0;fillColor=none;top=0;left=0;bottom=0;right=0;align=left;spacingLeft=6;overflow=hidden;shadow=0;fontColor=#030303;strokeColor=#000000;" vertex="1" parent="tufFg8tONRUplMRt9rdd-305">
          <mxGeometry x="30" width="123" height="30" as="geometry">
            <mxRectangle width="123" height="30" as="alternateBounds" />
          </mxGeometry>
        </mxCell>
        <mxCell id="tufFg8tONRUplMRt9rdd-308" value="timestamp" style="shape=partialRectangle;connectable=0;fillColor=none;top=0;left=0;bottom=0;right=0;align=left;spacingLeft=6;overflow=hidden;shadow=0;fontColor=#030303;strokeColor=#000000;" vertex="1" parent="tufFg8tONRUplMRt9rdd-305">
          <mxGeometry x="153" width="110" height="30" as="geometry">
            <mxRectangle width="110" height="30" as="alternateBounds" />
          </mxGeometry>
        </mxCell>
        <mxCell id="tufFg8tONRUplMRt9rdd-310" style="edgeStyle=orthogonalEdgeStyle;rounded=1;orthogonalLoop=1;jettySize=auto;html=1;exitX=0;exitY=0.5;exitDx=0;exitDy=0;entryX=0;entryY=0.5;entryDx=0;entryDy=0;fontSize=12;startArrow=ERmandOne;startFill=0;endArrow=ERoneToMany;endFill=0;" edge="1" parent="1" source="tufFg8tONRUplMRt9rdd-243" target="tufFg8tONRUplMRt9rdd-281">
          <mxGeometry relative="1" as="geometry" />
        </mxCell>
        <mxCell id="tufFg8tONRUplMRt9rdd-311" value="Данная таблица необходима для определения групп для пользователя, пользователи с определенной ролью не могут быть привязаны группе из за своей роли" style="shape=note;whiteSpace=wrap;html=1;backgroundOutline=1;fontColor=#000000;darkOpacity=0.05;fillColor=#FFF9B2;strokeColor=none;fillStyle=solid;direction=west;gradientDirection=north;gradientColor=#FFF2A1;shadow=1;size=20;pointerEvents=1;rounded=0;glass=0;labelBackgroundColor=none;sketch=0;strokeWidth=1;fontSize=12;" vertex="1" parent="1">
          <mxGeometry x="220" y="750" width="140" height="160" as="geometry" />
        </mxCell>
        <mxCell id="tufFg8tONRUplMRt9rdd-312" value="keycloak под вопросом, есть более простой инструмент" style="shape=note;whiteSpace=wrap;html=1;backgroundOutline=1;fontColor=#000000;darkOpacity=0.05;fillColor=#FFF9B2;strokeColor=none;fillStyle=solid;direction=west;gradientDirection=north;gradientColor=#FFF2A1;shadow=1;size=20;pointerEvents=1;rounded=0;glass=0;labelBackgroundColor=none;sketch=0;strokeWidth=1;fontSize=12;" vertex="1" parent="1">
          <mxGeometry x="430" y="583" width="140" height="160" as="geometry" />
        </mxCell>
        <mxCell id="tufFg8tONRUplMRt9rdd-313" value="" style="rounded=0;whiteSpace=wrap;html=1;strokeColor=#1c4740;fillColor=#B7BABD;glass=0;gradientColor=none;" vertex="1" parent="1">
          <mxGeometry x="-280" y="1600" width="1620" height="1070" as="geometry" />
        </mxCell>
        <mxCell id="tufFg8tONRUplMRt9rdd-314" value="users" style="shape=table;startSize=30;container=1;collapsible=1;childLayout=tableLayout;fixedRows=1;rowLines=0;fontStyle=1;align=center;resizeLast=1;shadow=0;fontColor=#ffffff;strokeColor=#1C4740;fillColor=#3FA292;swimlaneFillColor=#FFFFFF;" vertex="1" parent="1">
          <mxGeometry x="369.5" y="1780" width="263" height="330" as="geometry" />
        </mxCell>
        <mxCell id="tufFg8tONRUplMRt9rdd-315" value="" style="shape=partialRectangle;collapsible=0;dropTarget=0;pointerEvents=0;fillColor=none;top=0;left=0;bottom=1;right=0;points=[[0,0.5],[1,0.5]];portConstraint=eastwest;shadow=0;fontColor=#030303;strokeColor=#1C4740;" vertex="1" parent="tufFg8tONRUplMRt9rdd-314">
          <mxGeometry y="30" width="263" height="30" as="geometry" />
        </mxCell>
        <mxCell id="tufFg8tONRUplMRt9rdd-316" value="PK" style="shape=partialRectangle;connectable=0;fillColor=none;top=0;left=0;bottom=0;right=0;fontStyle=1;overflow=hidden;shadow=0;fontColor=#030303;strokeColor=#000000;" vertex="1" parent="tufFg8tONRUplMRt9rdd-315">
          <mxGeometry width="30" height="30" as="geometry">
            <mxRectangle width="30" height="30" as="alternateBounds" />
          </mxGeometry>
        </mxCell>
        <mxCell id="tufFg8tONRUplMRt9rdd-317" value="id" style="shape=partialRectangle;connectable=0;fillColor=none;top=0;left=0;bottom=0;right=0;align=left;spacingLeft=6;fontStyle=5;overflow=hidden;shadow=0;fontColor=#030303;strokeColor=#000000;" vertex="1" parent="tufFg8tONRUplMRt9rdd-315">
          <mxGeometry x="30" width="123" height="30" as="geometry">
            <mxRectangle width="123" height="30" as="alternateBounds" />
          </mxGeometry>
        </mxCell>
        <mxCell id="tufFg8tONRUplMRt9rdd-318" value="uuid" style="shape=partialRectangle;connectable=0;fillColor=none;top=0;left=0;bottom=0;right=0;align=left;spacingLeft=6;fontStyle=5;overflow=hidden;shadow=0;fontColor=#030303;strokeColor=#000000;" vertex="1" parent="tufFg8tONRUplMRt9rdd-315">
          <mxGeometry x="153" width="110" height="30" as="geometry">
            <mxRectangle width="110" height="30" as="alternateBounds" />
          </mxGeometry>
        </mxCell>
        <mxCell id="tufFg8tONRUplMRt9rdd-319" style="shape=partialRectangle;collapsible=0;dropTarget=0;pointerEvents=0;fillColor=none;top=0;left=0;bottom=0;right=0;points=[[0,0.5],[1,0.5]];portConstraint=eastwest;shadow=0;fontColor=#030303;strokeColor=#1c4740;" vertex="1" parent="tufFg8tONRUplMRt9rdd-314">
          <mxGeometry y="60" width="263" height="30" as="geometry" />
        </mxCell>
        <mxCell id="tufFg8tONRUplMRt9rdd-320" value="" style="shape=partialRectangle;connectable=0;fillColor=none;top=0;left=0;bottom=0;right=0;editable=1;overflow=hidden;shadow=0;fontColor=#030303;strokeColor=#000000;" vertex="1" parent="tufFg8tONRUplMRt9rdd-319">
          <mxGeometry width="30" height="30" as="geometry">
            <mxRectangle width="30" height="30" as="alternateBounds" />
          </mxGeometry>
        </mxCell>
        <mxCell id="tufFg8tONRUplMRt9rdd-321" value="first_name" style="shape=partialRectangle;connectable=0;fillColor=none;top=0;left=0;bottom=0;right=0;align=left;spacingLeft=6;overflow=hidden;shadow=0;fontColor=#030303;strokeColor=#000000;" vertex="1" parent="tufFg8tONRUplMRt9rdd-319">
          <mxGeometry x="30" width="123" height="30" as="geometry">
            <mxRectangle width="123" height="30" as="alternateBounds" />
          </mxGeometry>
        </mxCell>
        <mxCell id="tufFg8tONRUplMRt9rdd-322" value="varchar(255)" style="shape=partialRectangle;connectable=0;fillColor=none;top=0;left=0;bottom=0;right=0;align=left;spacingLeft=6;overflow=hidden;shadow=0;fontColor=#030303;strokeColor=#000000;" vertex="1" parent="tufFg8tONRUplMRt9rdd-319">
          <mxGeometry x="153" width="110" height="30" as="geometry">
            <mxRectangle width="110" height="30" as="alternateBounds" />
          </mxGeometry>
        </mxCell>
        <mxCell id="tufFg8tONRUplMRt9rdd-323" style="shape=partialRectangle;collapsible=0;dropTarget=0;pointerEvents=0;fillColor=none;top=0;left=0;bottom=0;right=0;points=[[0,0.5],[1,0.5]];portConstraint=eastwest;shadow=0;fontColor=#030303;strokeColor=#000000;" vertex="1" parent="tufFg8tONRUplMRt9rdd-314">
          <mxGeometry y="90" width="263" height="30" as="geometry" />
        </mxCell>
        <mxCell id="tufFg8tONRUplMRt9rdd-324" value="" style="shape=partialRectangle;connectable=0;fillColor=none;top=0;left=0;bottom=0;right=0;editable=1;overflow=hidden;shadow=0;fontColor=#030303;strokeColor=#000000;" vertex="1" parent="tufFg8tONRUplMRt9rdd-323">
          <mxGeometry width="30" height="30" as="geometry">
            <mxRectangle width="30" height="30" as="alternateBounds" />
          </mxGeometry>
        </mxCell>
        <mxCell id="tufFg8tONRUplMRt9rdd-325" value="last_name" style="shape=partialRectangle;connectable=0;fillColor=none;top=0;left=0;bottom=0;right=0;align=left;spacingLeft=6;overflow=hidden;shadow=0;fontColor=#030303;strokeColor=#000000;" vertex="1" parent="tufFg8tONRUplMRt9rdd-323">
          <mxGeometry x="30" width="123" height="30" as="geometry">
            <mxRectangle width="123" height="30" as="alternateBounds" />
          </mxGeometry>
        </mxCell>
        <mxCell id="tufFg8tONRUplMRt9rdd-326" value="varchar(255)" style="shape=partialRectangle;connectable=0;fillColor=none;top=0;left=0;bottom=0;right=0;align=left;spacingLeft=6;overflow=hidden;shadow=0;fontColor=#030303;strokeColor=#000000;" vertex="1" parent="tufFg8tONRUplMRt9rdd-323">
          <mxGeometry x="153" width="110" height="30" as="geometry">
            <mxRectangle width="110" height="30" as="alternateBounds" />
          </mxGeometry>
        </mxCell>
        <mxCell id="tufFg8tONRUplMRt9rdd-327" style="shape=partialRectangle;collapsible=0;dropTarget=0;pointerEvents=0;fillColor=none;top=0;left=0;bottom=0;right=0;points=[[0,0.5],[1,0.5]];portConstraint=eastwest;shadow=0;fontColor=#030303;strokeColor=#000000;" vertex="1" parent="tufFg8tONRUplMRt9rdd-314">
          <mxGeometry y="120" width="263" height="30" as="geometry" />
        </mxCell>
        <mxCell id="tufFg8tONRUplMRt9rdd-328" value="" style="shape=partialRectangle;connectable=0;fillColor=none;top=0;left=0;bottom=0;right=0;editable=1;overflow=hidden;shadow=0;fontColor=#030303;strokeColor=#000000;" vertex="1" parent="tufFg8tONRUplMRt9rdd-327">
          <mxGeometry width="30" height="30" as="geometry">
            <mxRectangle width="30" height="30" as="alternateBounds" />
          </mxGeometry>
        </mxCell>
        <mxCell id="tufFg8tONRUplMRt9rdd-329" value="middle_name" style="shape=partialRectangle;connectable=0;fillColor=none;top=0;left=0;bottom=0;right=0;align=left;spacingLeft=6;overflow=hidden;shadow=0;fontColor=#030303;strokeColor=#000000;" vertex="1" parent="tufFg8tONRUplMRt9rdd-327">
          <mxGeometry x="30" width="123" height="30" as="geometry">
            <mxRectangle width="123" height="30" as="alternateBounds" />
          </mxGeometry>
        </mxCell>
        <mxCell id="tufFg8tONRUplMRt9rdd-330" value="varchar(255)" style="shape=partialRectangle;connectable=0;fillColor=none;top=0;left=0;bottom=0;right=0;align=left;spacingLeft=6;overflow=hidden;shadow=0;fontColor=#030303;strokeColor=#000000;" vertex="1" parent="tufFg8tONRUplMRt9rdd-327">
          <mxGeometry x="153" width="110" height="30" as="geometry">
            <mxRectangle width="110" height="30" as="alternateBounds" />
          </mxGeometry>
        </mxCell>
        <mxCell id="tufFg8tONRUplMRt9rdd-331" style="shape=partialRectangle;collapsible=0;dropTarget=0;pointerEvents=0;fillColor=none;top=0;left=0;bottom=0;right=0;points=[[0,0.5],[1,0.5]];portConstraint=eastwest;shadow=0;fontColor=#030303;strokeColor=#000000;" vertex="1" parent="tufFg8tONRUplMRt9rdd-314">
          <mxGeometry y="150" width="263" height="30" as="geometry" />
        </mxCell>
        <mxCell id="tufFg8tONRUplMRt9rdd-332" value="" style="shape=partialRectangle;connectable=0;fillColor=none;top=0;left=0;bottom=0;right=0;editable=1;overflow=hidden;shadow=0;fontColor=#030303;strokeColor=#000000;" vertex="1" parent="tufFg8tONRUplMRt9rdd-331">
          <mxGeometry width="30" height="30" as="geometry">
            <mxRectangle width="30" height="30" as="alternateBounds" />
          </mxGeometry>
        </mxCell>
        <mxCell id="tufFg8tONRUplMRt9rdd-333" value="keycloak_id?" style="shape=partialRectangle;connectable=0;fillColor=none;top=0;left=0;bottom=0;right=0;align=left;spacingLeft=6;overflow=hidden;shadow=0;fontColor=#030303;strokeColor=#000000;" vertex="1" parent="tufFg8tONRUplMRt9rdd-331">
          <mxGeometry x="30" width="123" height="30" as="geometry">
            <mxRectangle width="123" height="30" as="alternateBounds" />
          </mxGeometry>
        </mxCell>
        <mxCell id="tufFg8tONRUplMRt9rdd-334" value="uuid" style="shape=partialRectangle;connectable=0;fillColor=none;top=0;left=0;bottom=0;right=0;align=left;spacingLeft=6;overflow=hidden;shadow=0;fontColor=#030303;strokeColor=#000000;" vertex="1" parent="tufFg8tONRUplMRt9rdd-331">
          <mxGeometry x="153" width="110" height="30" as="geometry">
            <mxRectangle width="110" height="30" as="alternateBounds" />
          </mxGeometry>
        </mxCell>
        <mxCell id="tufFg8tONRUplMRt9rdd-335" style="shape=partialRectangle;collapsible=0;dropTarget=0;pointerEvents=0;fillColor=none;top=0;left=0;bottom=0;right=0;points=[[0,0.5],[1,0.5]];portConstraint=eastwest;shadow=0;fontColor=#030303;strokeColor=#000000;" vertex="1" parent="tufFg8tONRUplMRt9rdd-314">
          <mxGeometry y="180" width="263" height="30" as="geometry" />
        </mxCell>
        <mxCell id="tufFg8tONRUplMRt9rdd-336" value="" style="shape=partialRectangle;connectable=0;fillColor=none;top=0;left=0;bottom=0;right=0;editable=1;overflow=hidden;shadow=0;fontColor=#030303;strokeColor=#000000;" vertex="1" parent="tufFg8tONRUplMRt9rdd-335">
          <mxGeometry width="30" height="30" as="geometry">
            <mxRectangle width="30" height="30" as="alternateBounds" />
          </mxGeometry>
        </mxCell>
        <mxCell id="tufFg8tONRUplMRt9rdd-337" value="keycloak_enabled?" style="shape=partialRectangle;connectable=0;fillColor=none;top=0;left=0;bottom=0;right=0;align=left;spacingLeft=6;overflow=hidden;shadow=0;fontColor=#030303;strokeColor=#000000;" vertex="1" parent="tufFg8tONRUplMRt9rdd-335">
          <mxGeometry x="30" width="123" height="30" as="geometry">
            <mxRectangle width="123" height="30" as="alternateBounds" />
          </mxGeometry>
        </mxCell>
        <mxCell id="tufFg8tONRUplMRt9rdd-338" value="boolean" style="shape=partialRectangle;connectable=0;fillColor=none;top=0;left=0;bottom=0;right=0;align=left;spacingLeft=6;overflow=hidden;shadow=0;fontColor=#030303;strokeColor=#000000;" vertex="1" parent="tufFg8tONRUplMRt9rdd-335">
          <mxGeometry x="153" width="110" height="30" as="geometry">
            <mxRectangle width="110" height="30" as="alternateBounds" />
          </mxGeometry>
        </mxCell>
        <mxCell id="tufFg8tONRUplMRt9rdd-339" style="shape=partialRectangle;collapsible=0;dropTarget=0;pointerEvents=0;fillColor=none;top=0;left=0;bottom=0;right=0;points=[[0,0.5],[1,0.5]];portConstraint=eastwest;shadow=0;fontColor=#030303;strokeColor=#000000;" vertex="1" parent="tufFg8tONRUplMRt9rdd-314">
          <mxGeometry y="210" width="263" height="30" as="geometry" />
        </mxCell>
        <mxCell id="tufFg8tONRUplMRt9rdd-340" value="" style="shape=partialRectangle;connectable=0;fillColor=none;top=0;left=0;bottom=0;right=0;editable=1;overflow=hidden;shadow=0;fontColor=#030303;strokeColor=#000000;" vertex="1" parent="tufFg8tONRUplMRt9rdd-339">
          <mxGeometry width="30" height="30" as="geometry">
            <mxRectangle width="30" height="30" as="alternateBounds" />
          </mxGeometry>
        </mxCell>
        <mxCell id="tufFg8tONRUplMRt9rdd-341" value="deactivated" style="shape=partialRectangle;connectable=0;fillColor=none;top=0;left=0;bottom=0;right=0;align=left;spacingLeft=6;overflow=hidden;shadow=0;fontColor=#030303;strokeColor=#000000;" vertex="1" parent="tufFg8tONRUplMRt9rdd-339">
          <mxGeometry x="30" width="123" height="30" as="geometry">
            <mxRectangle width="123" height="30" as="alternateBounds" />
          </mxGeometry>
        </mxCell>
        <mxCell id="tufFg8tONRUplMRt9rdd-342" value="boolean" style="shape=partialRectangle;connectable=0;fillColor=none;top=0;left=0;bottom=0;right=0;align=left;spacingLeft=6;overflow=hidden;shadow=0;fontColor=#030303;strokeColor=#000000;" vertex="1" parent="tufFg8tONRUplMRt9rdd-339">
          <mxGeometry x="153" width="110" height="30" as="geometry">
            <mxRectangle width="110" height="30" as="alternateBounds" />
          </mxGeometry>
        </mxCell>
        <mxCell id="tufFg8tONRUplMRt9rdd-343" style="shape=partialRectangle;collapsible=0;dropTarget=0;pointerEvents=0;fillColor=none;top=0;left=0;bottom=0;right=0;points=[[0,0.5],[1,0.5]];portConstraint=eastwest;shadow=0;fontColor=#030303;strokeColor=#000000;" vertex="1" parent="tufFg8tONRUplMRt9rdd-314">
          <mxGeometry y="240" width="263" height="30" as="geometry" />
        </mxCell>
        <mxCell id="tufFg8tONRUplMRt9rdd-344" value="" style="shape=partialRectangle;connectable=0;fillColor=none;top=0;left=0;bottom=0;right=0;editable=1;overflow=hidden;shadow=0;fontColor=#030303;strokeColor=#000000;" vertex="1" parent="tufFg8tONRUplMRt9rdd-343">
          <mxGeometry width="30" height="30" as="geometry">
            <mxRectangle width="30" height="30" as="alternateBounds" />
          </mxGeometry>
        </mxCell>
        <mxCell id="tufFg8tONRUplMRt9rdd-345" value="birth_date" style="shape=partialRectangle;connectable=0;fillColor=none;top=0;left=0;bottom=0;right=0;align=left;spacingLeft=6;overflow=hidden;shadow=0;fontColor=#030303;strokeColor=#000000;" vertex="1" parent="tufFg8tONRUplMRt9rdd-343">
          <mxGeometry x="30" width="123" height="30" as="geometry">
            <mxRectangle width="123" height="30" as="alternateBounds" />
          </mxGeometry>
        </mxCell>
        <mxCell id="tufFg8tONRUplMRt9rdd-346" value="timestamp" style="shape=partialRectangle;connectable=0;fillColor=none;top=0;left=0;bottom=0;right=0;align=left;spacingLeft=6;overflow=hidden;shadow=0;fontColor=#030303;strokeColor=#000000;" vertex="1" parent="tufFg8tONRUplMRt9rdd-343">
          <mxGeometry x="153" width="110" height="30" as="geometry">
            <mxRectangle width="110" height="30" as="alternateBounds" />
          </mxGeometry>
        </mxCell>
        <mxCell id="tufFg8tONRUplMRt9rdd-347" value="" style="shape=partialRectangle;collapsible=0;dropTarget=0;pointerEvents=0;fillColor=none;top=0;left=0;bottom=0;right=0;points=[[0,0.5],[1,0.5]];portConstraint=eastwest;shadow=0;fontColor=#030303;strokeColor=#000000;" vertex="1" parent="tufFg8tONRUplMRt9rdd-314">
          <mxGeometry y="270" width="263" height="30" as="geometry" />
        </mxCell>
        <mxCell id="tufFg8tONRUplMRt9rdd-348" value="" style="shape=partialRectangle;connectable=0;fillColor=none;top=0;left=0;bottom=0;right=0;editable=1;overflow=hidden;shadow=0;fontColor=#030303;strokeColor=#000000;" vertex="1" parent="tufFg8tONRUplMRt9rdd-347">
          <mxGeometry width="30" height="30" as="geometry">
            <mxRectangle width="30" height="30" as="alternateBounds" />
          </mxGeometry>
        </mxCell>
        <mxCell id="tufFg8tONRUplMRt9rdd-349" value="updatedAt" style="shape=partialRectangle;connectable=0;fillColor=none;top=0;left=0;bottom=0;right=0;align=left;spacingLeft=6;overflow=hidden;shadow=0;fontColor=#030303;strokeColor=#000000;" vertex="1" parent="tufFg8tONRUplMRt9rdd-347">
          <mxGeometry x="30" width="123" height="30" as="geometry">
            <mxRectangle width="123" height="30" as="alternateBounds" />
          </mxGeometry>
        </mxCell>
        <mxCell id="tufFg8tONRUplMRt9rdd-350" value="timestamp" style="shape=partialRectangle;connectable=0;fillColor=none;top=0;left=0;bottom=0;right=0;align=left;spacingLeft=6;overflow=hidden;shadow=0;fontColor=#030303;strokeColor=#000000;" vertex="1" parent="tufFg8tONRUplMRt9rdd-347">
          <mxGeometry x="153" width="110" height="30" as="geometry">
            <mxRectangle width="110" height="30" as="alternateBounds" />
          </mxGeometry>
        </mxCell>
        <mxCell id="tufFg8tONRUplMRt9rdd-351" style="shape=partialRectangle;collapsible=0;dropTarget=0;pointerEvents=0;fillColor=none;top=0;left=0;bottom=0;right=0;points=[[0,0.5],[1,0.5]];portConstraint=eastwest;shadow=0;fontColor=#030303;strokeColor=#000000;" vertex="1" parent="tufFg8tONRUplMRt9rdd-314">
          <mxGeometry y="300" width="263" height="30" as="geometry" />
        </mxCell>
        <mxCell id="tufFg8tONRUplMRt9rdd-352" style="shape=partialRectangle;connectable=0;fillColor=none;top=0;left=0;bottom=0;right=0;editable=1;overflow=hidden;shadow=0;fontColor=#030303;strokeColor=#000000;" vertex="1" parent="tufFg8tONRUplMRt9rdd-351">
          <mxGeometry width="30" height="30" as="geometry">
            <mxRectangle width="30" height="30" as="alternateBounds" />
          </mxGeometry>
        </mxCell>
        <mxCell id="tufFg8tONRUplMRt9rdd-353" value="createdAt" style="shape=partialRectangle;connectable=0;fillColor=none;top=0;left=0;bottom=0;right=0;align=left;spacingLeft=6;overflow=hidden;shadow=0;fontColor=#030303;strokeColor=#000000;" vertex="1" parent="tufFg8tONRUplMRt9rdd-351">
          <mxGeometry x="30" width="123" height="30" as="geometry">
            <mxRectangle width="123" height="30" as="alternateBounds" />
          </mxGeometry>
        </mxCell>
        <mxCell id="tufFg8tONRUplMRt9rdd-354" value="timestamp" style="shape=partialRectangle;connectable=0;fillColor=none;top=0;left=0;bottom=0;right=0;align=left;spacingLeft=6;overflow=hidden;shadow=0;fontColor=#030303;strokeColor=#000000;" vertex="1" parent="tufFg8tONRUplMRt9rdd-351">
          <mxGeometry x="153" width="110" height="30" as="geometry">
            <mxRectangle width="110" height="30" as="alternateBounds" />
          </mxGeometry>
        </mxCell>
        <mxCell id="tufFg8tONRUplMRt9rdd-355" value="Сервис дневника (разработка )" style="text;html=1;strokeColor=none;fillColor=none;align=center;verticalAlign=middle;whiteSpace=wrap;rounded=0;shadow=0;fontColor=#030303;strokeWidth=5;spacing=7;spacingTop=1;fontSize=30;" vertex="1" parent="1">
          <mxGeometry x="211" y="1640" width="580" height="30" as="geometry" />
        </mxCell>
        <mxCell id="tufFg8tONRUplMRt9rdd-356" value="users_roles" style="shape=table;startSize=30;container=1;collapsible=1;childLayout=tableLayout;fixedRows=1;rowLines=0;fontStyle=1;align=center;resizeLast=1;shadow=0;fontColor=#ffffff;strokeColor=#1C4740;fillColor=#3FA292;swimlaneFillColor=#FFFFFF;" vertex="1" parent="1">
          <mxGeometry x="700" y="1780" width="263" height="180" as="geometry" />
        </mxCell>
        <mxCell id="tufFg8tONRUplMRt9rdd-357" value="" style="shape=partialRectangle;collapsible=0;dropTarget=0;pointerEvents=0;fillColor=none;top=0;left=0;bottom=1;right=0;points=[[0,0.5],[1,0.5]];portConstraint=eastwest;shadow=0;fontColor=#030303;strokeColor=#1C4740;" vertex="1" parent="tufFg8tONRUplMRt9rdd-356">
          <mxGeometry y="30" width="263" height="30" as="geometry" />
        </mxCell>
        <mxCell id="tufFg8tONRUplMRt9rdd-358" value="PK" style="shape=partialRectangle;connectable=0;fillColor=none;top=0;left=0;bottom=0;right=0;fontStyle=1;overflow=hidden;shadow=0;fontColor=#030303;strokeColor=#000000;" vertex="1" parent="tufFg8tONRUplMRt9rdd-357">
          <mxGeometry width="30" height="30" as="geometry">
            <mxRectangle width="30" height="30" as="alternateBounds" />
          </mxGeometry>
        </mxCell>
        <mxCell id="tufFg8tONRUplMRt9rdd-359" value="id" style="shape=partialRectangle;connectable=0;fillColor=none;top=0;left=0;bottom=0;right=0;align=left;spacingLeft=6;fontStyle=5;overflow=hidden;shadow=0;fontColor=#030303;strokeColor=#000000;" vertex="1" parent="tufFg8tONRUplMRt9rdd-357">
          <mxGeometry x="30" width="123" height="30" as="geometry">
            <mxRectangle width="123" height="30" as="alternateBounds" />
          </mxGeometry>
        </mxCell>
        <mxCell id="tufFg8tONRUplMRt9rdd-360" value="uuid" style="shape=partialRectangle;connectable=0;fillColor=none;top=0;left=0;bottom=0;right=0;align=left;spacingLeft=6;fontStyle=5;overflow=hidden;shadow=0;fontColor=#030303;strokeColor=#000000;" vertex="1" parent="tufFg8tONRUplMRt9rdd-357">
          <mxGeometry x="153" width="110" height="30" as="geometry">
            <mxRectangle width="110" height="30" as="alternateBounds" />
          </mxGeometry>
        </mxCell>
        <mxCell id="tufFg8tONRUplMRt9rdd-361" style="shape=partialRectangle;collapsible=0;dropTarget=0;pointerEvents=0;fillColor=none;top=0;left=0;bottom=1;right=0;points=[[0,0.5],[1,0.5]];portConstraint=eastwest;shadow=0;fontColor=#030303;strokeColor=#1c4740;" vertex="1" parent="tufFg8tONRUplMRt9rdd-356">
          <mxGeometry y="60" width="263" height="30" as="geometry" />
        </mxCell>
        <mxCell id="tufFg8tONRUplMRt9rdd-362" value="FK" style="shape=partialRectangle;connectable=0;fillColor=none;top=0;left=0;bottom=0;right=0;editable=1;overflow=hidden;shadow=0;fontColor=#030303;strokeColor=#000000;" vertex="1" parent="tufFg8tONRUplMRt9rdd-361">
          <mxGeometry width="30" height="30" as="geometry">
            <mxRectangle width="30" height="30" as="alternateBounds" />
          </mxGeometry>
        </mxCell>
        <mxCell id="tufFg8tONRUplMRt9rdd-363" value="user_id" style="shape=partialRectangle;connectable=0;fillColor=none;top=0;left=0;bottom=0;right=0;align=left;spacingLeft=6;overflow=hidden;shadow=0;fontColor=#030303;strokeColor=#000000;fontStyle=5" vertex="1" parent="tufFg8tONRUplMRt9rdd-361">
          <mxGeometry x="30" width="123" height="30" as="geometry">
            <mxRectangle width="123" height="30" as="alternateBounds" />
          </mxGeometry>
        </mxCell>
        <mxCell id="tufFg8tONRUplMRt9rdd-364" value="uuid" style="shape=partialRectangle;connectable=0;fillColor=none;top=0;left=0;bottom=0;right=0;align=left;spacingLeft=6;overflow=hidden;shadow=0;fontColor=#030303;strokeColor=#000000;fontStyle=5" vertex="1" parent="tufFg8tONRUplMRt9rdd-361">
          <mxGeometry x="153" width="110" height="30" as="geometry">
            <mxRectangle width="110" height="30" as="alternateBounds" />
          </mxGeometry>
        </mxCell>
        <mxCell id="tufFg8tONRUplMRt9rdd-365" style="shape=partialRectangle;collapsible=0;dropTarget=0;pointerEvents=0;fillColor=none;top=0;left=0;bottom=1;right=0;points=[[0,0.5],[1,0.5]];portConstraint=eastwest;shadow=0;fontColor=#030303;strokeColor=#1C4740;" vertex="1" parent="tufFg8tONRUplMRt9rdd-356">
          <mxGeometry y="90" width="263" height="30" as="geometry" />
        </mxCell>
        <mxCell id="tufFg8tONRUplMRt9rdd-366" value="FK" style="shape=partialRectangle;connectable=0;fillColor=none;top=0;left=0;bottom=0;right=0;editable=1;overflow=hidden;shadow=0;fontColor=#030303;strokeColor=#000000;" vertex="1" parent="tufFg8tONRUplMRt9rdd-365">
          <mxGeometry width="30" height="30" as="geometry">
            <mxRectangle width="30" height="30" as="alternateBounds" />
          </mxGeometry>
        </mxCell>
        <mxCell id="tufFg8tONRUplMRt9rdd-367" value="roles_id" style="shape=partialRectangle;connectable=0;fillColor=none;top=0;left=0;bottom=0;right=0;align=left;spacingLeft=6;overflow=hidden;shadow=0;fontColor=#030303;strokeColor=#000000;fontStyle=5" vertex="1" parent="tufFg8tONRUplMRt9rdd-365">
          <mxGeometry x="30" width="123" height="30" as="geometry">
            <mxRectangle width="123" height="30" as="alternateBounds" />
          </mxGeometry>
        </mxCell>
        <mxCell id="tufFg8tONRUplMRt9rdd-368" value="uuid" style="shape=partialRectangle;connectable=0;fillColor=none;top=0;left=0;bottom=0;right=0;align=left;spacingLeft=6;overflow=hidden;shadow=0;fontColor=#030303;strokeColor=#000000;fontStyle=5" vertex="1" parent="tufFg8tONRUplMRt9rdd-365">
          <mxGeometry x="153" width="110" height="30" as="geometry">
            <mxRectangle width="110" height="30" as="alternateBounds" />
          </mxGeometry>
        </mxCell>
        <mxCell id="tufFg8tONRUplMRt9rdd-369" value="" style="shape=partialRectangle;collapsible=0;dropTarget=0;pointerEvents=0;fillColor=none;top=0;left=0;bottom=0;right=0;points=[[0,0.5],[1,0.5]];portConstraint=eastwest;shadow=0;fontColor=#030303;strokeColor=#000000;" vertex="1" parent="tufFg8tONRUplMRt9rdd-356">
          <mxGeometry y="120" width="263" height="30" as="geometry" />
        </mxCell>
        <mxCell id="tufFg8tONRUplMRt9rdd-370" value="" style="shape=partialRectangle;connectable=0;fillColor=none;top=0;left=0;bottom=0;right=0;editable=1;overflow=hidden;shadow=0;fontColor=#030303;strokeColor=#000000;" vertex="1" parent="tufFg8tONRUplMRt9rdd-369">
          <mxGeometry width="30" height="30" as="geometry">
            <mxRectangle width="30" height="30" as="alternateBounds" />
          </mxGeometry>
        </mxCell>
        <mxCell id="tufFg8tONRUplMRt9rdd-371" value="updatedAt" style="shape=partialRectangle;connectable=0;fillColor=none;top=0;left=0;bottom=0;right=0;align=left;spacingLeft=6;overflow=hidden;shadow=0;fontColor=#030303;strokeColor=#000000;" vertex="1" parent="tufFg8tONRUplMRt9rdd-369">
          <mxGeometry x="30" width="123" height="30" as="geometry">
            <mxRectangle width="123" height="30" as="alternateBounds" />
          </mxGeometry>
        </mxCell>
        <mxCell id="tufFg8tONRUplMRt9rdd-372" value="timestamp" style="shape=partialRectangle;connectable=0;fillColor=none;top=0;left=0;bottom=0;right=0;align=left;spacingLeft=6;overflow=hidden;shadow=0;fontColor=#030303;strokeColor=#000000;" vertex="1" parent="tufFg8tONRUplMRt9rdd-369">
          <mxGeometry x="153" width="110" height="30" as="geometry">
            <mxRectangle width="110" height="30" as="alternateBounds" />
          </mxGeometry>
        </mxCell>
        <mxCell id="tufFg8tONRUplMRt9rdd-373" style="shape=partialRectangle;collapsible=0;dropTarget=0;pointerEvents=0;fillColor=none;top=0;left=0;bottom=0;right=0;points=[[0,0.5],[1,0.5]];portConstraint=eastwest;shadow=0;fontColor=#030303;strokeColor=#000000;" vertex="1" parent="tufFg8tONRUplMRt9rdd-356">
          <mxGeometry y="150" width="263" height="30" as="geometry" />
        </mxCell>
        <mxCell id="tufFg8tONRUplMRt9rdd-374" style="shape=partialRectangle;connectable=0;fillColor=none;top=0;left=0;bottom=0;right=0;editable=1;overflow=hidden;shadow=0;fontColor=#030303;strokeColor=#000000;" vertex="1" parent="tufFg8tONRUplMRt9rdd-373">
          <mxGeometry width="30" height="30" as="geometry">
            <mxRectangle width="30" height="30" as="alternateBounds" />
          </mxGeometry>
        </mxCell>
        <mxCell id="tufFg8tONRUplMRt9rdd-375" value="createdAt" style="shape=partialRectangle;connectable=0;fillColor=none;top=0;left=0;bottom=0;right=0;align=left;spacingLeft=6;overflow=hidden;shadow=0;fontColor=#030303;strokeColor=#000000;" vertex="1" parent="tufFg8tONRUplMRt9rdd-373">
          <mxGeometry x="30" width="123" height="30" as="geometry">
            <mxRectangle width="123" height="30" as="alternateBounds" />
          </mxGeometry>
        </mxCell>
        <mxCell id="tufFg8tONRUplMRt9rdd-376" value="timestamp" style="shape=partialRectangle;connectable=0;fillColor=none;top=0;left=0;bottom=0;right=0;align=left;spacingLeft=6;overflow=hidden;shadow=0;fontColor=#030303;strokeColor=#000000;" vertex="1" parent="tufFg8tONRUplMRt9rdd-373">
          <mxGeometry x="153" width="110" height="30" as="geometry">
            <mxRectangle width="110" height="30" as="alternateBounds" />
          </mxGeometry>
        </mxCell>
        <mxCell id="tufFg8tONRUplMRt9rdd-377" value="roles" style="shape=table;startSize=30;container=1;collapsible=1;childLayout=tableLayout;fixedRows=1;rowLines=0;fontStyle=1;align=center;resizeLast=1;shadow=0;fontColor=#ffffff;strokeColor=#1C4740;fillColor=#3FA292;swimlaneFillColor=#FFFFFF;" vertex="1" parent="1">
          <mxGeometry x="700" y="1990" width="263" height="150" as="geometry" />
        </mxCell>
        <mxCell id="tufFg8tONRUplMRt9rdd-378" value="" style="shape=partialRectangle;collapsible=0;dropTarget=0;pointerEvents=0;fillColor=none;top=0;left=0;bottom=1;right=0;points=[[0,0.5],[1,0.5]];portConstraint=eastwest;shadow=0;fontColor=#030303;strokeColor=#1C4740;" vertex="1" parent="tufFg8tONRUplMRt9rdd-377">
          <mxGeometry y="30" width="263" height="30" as="geometry" />
        </mxCell>
        <mxCell id="tufFg8tONRUplMRt9rdd-379" value="PK" style="shape=partialRectangle;connectable=0;fillColor=none;top=0;left=0;bottom=0;right=0;fontStyle=1;overflow=hidden;shadow=0;fontColor=#030303;strokeColor=#000000;" vertex="1" parent="tufFg8tONRUplMRt9rdd-378">
          <mxGeometry width="30" height="30" as="geometry">
            <mxRectangle width="30" height="30" as="alternateBounds" />
          </mxGeometry>
        </mxCell>
        <mxCell id="tufFg8tONRUplMRt9rdd-380" value="id" style="shape=partialRectangle;connectable=0;fillColor=none;top=0;left=0;bottom=0;right=0;align=left;spacingLeft=6;fontStyle=5;overflow=hidden;shadow=0;fontColor=#030303;strokeColor=#000000;" vertex="1" parent="tufFg8tONRUplMRt9rdd-378">
          <mxGeometry x="30" width="123" height="30" as="geometry">
            <mxRectangle width="123" height="30" as="alternateBounds" />
          </mxGeometry>
        </mxCell>
        <mxCell id="tufFg8tONRUplMRt9rdd-381" value="uuid" style="shape=partialRectangle;connectable=0;fillColor=none;top=0;left=0;bottom=0;right=0;align=left;spacingLeft=6;fontStyle=5;overflow=hidden;shadow=0;fontColor=#030303;strokeColor=#000000;" vertex="1" parent="tufFg8tONRUplMRt9rdd-378">
          <mxGeometry x="153" width="110" height="30" as="geometry">
            <mxRectangle width="110" height="30" as="alternateBounds" />
          </mxGeometry>
        </mxCell>
        <mxCell id="tufFg8tONRUplMRt9rdd-382" style="shape=partialRectangle;collapsible=0;dropTarget=0;pointerEvents=0;fillColor=none;top=0;left=0;bottom=0;right=0;points=[[0,0.5],[1,0.5]];portConstraint=eastwest;shadow=0;fontColor=#030303;strokeColor=#1c4740;" vertex="1" parent="tufFg8tONRUplMRt9rdd-377">
          <mxGeometry y="60" width="263" height="30" as="geometry" />
        </mxCell>
        <mxCell id="tufFg8tONRUplMRt9rdd-383" value="" style="shape=partialRectangle;connectable=0;fillColor=none;top=0;left=0;bottom=0;right=0;editable=1;overflow=hidden;shadow=0;fontColor=#030303;strokeColor=#000000;" vertex="1" parent="tufFg8tONRUplMRt9rdd-382">
          <mxGeometry width="30" height="30" as="geometry">
            <mxRectangle width="30" height="30" as="alternateBounds" />
          </mxGeometry>
        </mxCell>
        <mxCell id="tufFg8tONRUplMRt9rdd-384" value="roles_type" style="shape=partialRectangle;connectable=0;fillColor=none;top=0;left=0;bottom=0;right=0;align=left;spacingLeft=6;overflow=hidden;shadow=0;fontColor=#030303;strokeColor=#000000;" vertex="1" parent="tufFg8tONRUplMRt9rdd-382">
          <mxGeometry x="30" width="123" height="30" as="geometry">
            <mxRectangle width="123" height="30" as="alternateBounds" />
          </mxGeometry>
        </mxCell>
        <mxCell id="tufFg8tONRUplMRt9rdd-385" value="varchar(255)" style="shape=partialRectangle;connectable=0;fillColor=none;top=0;left=0;bottom=0;right=0;align=left;spacingLeft=6;overflow=hidden;shadow=0;fontColor=#030303;strokeColor=#000000;" vertex="1" parent="tufFg8tONRUplMRt9rdd-382">
          <mxGeometry x="153" width="110" height="30" as="geometry">
            <mxRectangle width="110" height="30" as="alternateBounds" />
          </mxGeometry>
        </mxCell>
        <mxCell id="tufFg8tONRUplMRt9rdd-386" value="" style="shape=partialRectangle;collapsible=0;dropTarget=0;pointerEvents=0;fillColor=none;top=0;left=0;bottom=0;right=0;points=[[0,0.5],[1,0.5]];portConstraint=eastwest;shadow=0;fontColor=#030303;strokeColor=#000000;" vertex="1" parent="tufFg8tONRUplMRt9rdd-377">
          <mxGeometry y="90" width="263" height="30" as="geometry" />
        </mxCell>
        <mxCell id="tufFg8tONRUplMRt9rdd-387" value="" style="shape=partialRectangle;connectable=0;fillColor=none;top=0;left=0;bottom=0;right=0;editable=1;overflow=hidden;shadow=0;fontColor=#030303;strokeColor=#000000;" vertex="1" parent="tufFg8tONRUplMRt9rdd-386">
          <mxGeometry width="30" height="30" as="geometry">
            <mxRectangle width="30" height="30" as="alternateBounds" />
          </mxGeometry>
        </mxCell>
        <mxCell id="tufFg8tONRUplMRt9rdd-388" value="updatedAt" style="shape=partialRectangle;connectable=0;fillColor=none;top=0;left=0;bottom=0;right=0;align=left;spacingLeft=6;overflow=hidden;shadow=0;fontColor=#030303;strokeColor=#000000;" vertex="1" parent="tufFg8tONRUplMRt9rdd-386">
          <mxGeometry x="30" width="123" height="30" as="geometry">
            <mxRectangle width="123" height="30" as="alternateBounds" />
          </mxGeometry>
        </mxCell>
        <mxCell id="tufFg8tONRUplMRt9rdd-389" value="timestamp" style="shape=partialRectangle;connectable=0;fillColor=none;top=0;left=0;bottom=0;right=0;align=left;spacingLeft=6;overflow=hidden;shadow=0;fontColor=#030303;strokeColor=#000000;" vertex="1" parent="tufFg8tONRUplMRt9rdd-386">
          <mxGeometry x="153" width="110" height="30" as="geometry">
            <mxRectangle width="110" height="30" as="alternateBounds" />
          </mxGeometry>
        </mxCell>
        <mxCell id="tufFg8tONRUplMRt9rdd-390" style="shape=partialRectangle;collapsible=0;dropTarget=0;pointerEvents=0;fillColor=none;top=0;left=0;bottom=0;right=0;points=[[0,0.5],[1,0.5]];portConstraint=eastwest;shadow=0;fontColor=#030303;strokeColor=#000000;" vertex="1" parent="tufFg8tONRUplMRt9rdd-377">
          <mxGeometry y="120" width="263" height="30" as="geometry" />
        </mxCell>
        <mxCell id="tufFg8tONRUplMRt9rdd-391" style="shape=partialRectangle;connectable=0;fillColor=none;top=0;left=0;bottom=0;right=0;editable=1;overflow=hidden;shadow=0;fontColor=#030303;strokeColor=#000000;" vertex="1" parent="tufFg8tONRUplMRt9rdd-390">
          <mxGeometry width="30" height="30" as="geometry">
            <mxRectangle width="30" height="30" as="alternateBounds" />
          </mxGeometry>
        </mxCell>
        <mxCell id="tufFg8tONRUplMRt9rdd-392" value="createdAt" style="shape=partialRectangle;connectable=0;fillColor=none;top=0;left=0;bottom=0;right=0;align=left;spacingLeft=6;overflow=hidden;shadow=0;fontColor=#030303;strokeColor=#000000;" vertex="1" parent="tufFg8tONRUplMRt9rdd-390">
          <mxGeometry x="30" width="123" height="30" as="geometry">
            <mxRectangle width="123" height="30" as="alternateBounds" />
          </mxGeometry>
        </mxCell>
        <mxCell id="tufFg8tONRUplMRt9rdd-393" value="timestamp" style="shape=partialRectangle;connectable=0;fillColor=none;top=0;left=0;bottom=0;right=0;align=left;spacingLeft=6;overflow=hidden;shadow=0;fontColor=#030303;strokeColor=#000000;" vertex="1" parent="tufFg8tONRUplMRt9rdd-390">
          <mxGeometry x="153" width="110" height="30" as="geometry">
            <mxRectangle width="110" height="30" as="alternateBounds" />
          </mxGeometry>
        </mxCell>
        <mxCell id="tufFg8tONRUplMRt9rdd-394" style="edgeStyle=orthogonalEdgeStyle;rounded=1;orthogonalLoop=1;jettySize=auto;html=1;exitX=1;exitY=0.5;exitDx=0;exitDy=0;entryX=0;entryY=0.5;entryDx=0;entryDy=0;fontSize=12;startArrow=ERmandOne;startFill=0;endArrow=ERoneToMany;endFill=0;" edge="1" parent="1" source="tufFg8tONRUplMRt9rdd-315" target="tufFg8tONRUplMRt9rdd-361">
          <mxGeometry relative="1" as="geometry" />
        </mxCell>
        <mxCell id="tufFg8tONRUplMRt9rdd-395" value="users_groups" style="shape=table;startSize=30;container=1;collapsible=1;childLayout=tableLayout;fixedRows=1;rowLines=0;fontStyle=1;align=center;resizeLast=1;shadow=0;fontColor=#ffffff;strokeColor=#1C4740;fillColor=#3FA292;swimlaneFillColor=#FFFFFF;" vertex="1" parent="1">
          <mxGeometry x="20" y="1780" width="263" height="180" as="geometry" />
        </mxCell>
        <mxCell id="tufFg8tONRUplMRt9rdd-396" value="" style="shape=partialRectangle;collapsible=0;dropTarget=0;pointerEvents=0;fillColor=none;top=0;left=0;bottom=1;right=0;points=[[0,0.5],[1,0.5]];portConstraint=eastwest;shadow=0;fontColor=#030303;strokeColor=#1C4740;" vertex="1" parent="tufFg8tONRUplMRt9rdd-395">
          <mxGeometry y="30" width="263" height="30" as="geometry" />
        </mxCell>
        <mxCell id="tufFg8tONRUplMRt9rdd-397" value="PK" style="shape=partialRectangle;connectable=0;fillColor=none;top=0;left=0;bottom=0;right=0;fontStyle=1;overflow=hidden;shadow=0;fontColor=#030303;strokeColor=#000000;" vertex="1" parent="tufFg8tONRUplMRt9rdd-396">
          <mxGeometry width="30" height="30" as="geometry">
            <mxRectangle width="30" height="30" as="alternateBounds" />
          </mxGeometry>
        </mxCell>
        <mxCell id="tufFg8tONRUplMRt9rdd-398" value="id" style="shape=partialRectangle;connectable=0;fillColor=none;top=0;left=0;bottom=0;right=0;align=left;spacingLeft=6;fontStyle=5;overflow=hidden;shadow=0;fontColor=#030303;strokeColor=#000000;" vertex="1" parent="tufFg8tONRUplMRt9rdd-396">
          <mxGeometry x="30" width="123" height="30" as="geometry">
            <mxRectangle width="123" height="30" as="alternateBounds" />
          </mxGeometry>
        </mxCell>
        <mxCell id="tufFg8tONRUplMRt9rdd-399" value="uuid" style="shape=partialRectangle;connectable=0;fillColor=none;top=0;left=0;bottom=0;right=0;align=left;spacingLeft=6;fontStyle=5;overflow=hidden;shadow=0;fontColor=#030303;strokeColor=#000000;" vertex="1" parent="tufFg8tONRUplMRt9rdd-396">
          <mxGeometry x="153" width="110" height="30" as="geometry">
            <mxRectangle width="110" height="30" as="alternateBounds" />
          </mxGeometry>
        </mxCell>
        <mxCell id="tufFg8tONRUplMRt9rdd-400" style="shape=partialRectangle;collapsible=0;dropTarget=0;pointerEvents=0;fillColor=none;top=0;left=0;bottom=1;right=0;points=[[0,0.5],[1,0.5]];portConstraint=eastwest;shadow=0;fontColor=#030303;strokeColor=#1c4740;perimeterSpacing=1;" vertex="1" parent="tufFg8tONRUplMRt9rdd-395">
          <mxGeometry y="60" width="263" height="30" as="geometry" />
        </mxCell>
        <mxCell id="tufFg8tONRUplMRt9rdd-401" value="FK" style="shape=partialRectangle;connectable=0;fillColor=none;top=0;left=0;bottom=0;right=0;editable=1;overflow=hidden;shadow=0;fontColor=#030303;strokeColor=#000000;fontStyle=1" vertex="1" parent="tufFg8tONRUplMRt9rdd-400">
          <mxGeometry width="30" height="30" as="geometry">
            <mxRectangle width="30" height="30" as="alternateBounds" />
          </mxGeometry>
        </mxCell>
        <mxCell id="tufFg8tONRUplMRt9rdd-402" value="user_id" style="shape=partialRectangle;connectable=0;fillColor=none;top=0;left=0;bottom=0;right=0;align=left;spacingLeft=6;overflow=hidden;shadow=0;fontColor=#030303;strokeColor=#000000;fontStyle=5" vertex="1" parent="tufFg8tONRUplMRt9rdd-400">
          <mxGeometry x="30" width="123" height="30" as="geometry">
            <mxRectangle width="123" height="30" as="alternateBounds" />
          </mxGeometry>
        </mxCell>
        <mxCell id="tufFg8tONRUplMRt9rdd-403" value="uuid" style="shape=partialRectangle;connectable=0;fillColor=none;top=0;left=0;bottom=0;right=0;align=left;spacingLeft=6;overflow=hidden;shadow=0;fontColor=#030303;strokeColor=#000000;fontStyle=5" vertex="1" parent="tufFg8tONRUplMRt9rdd-400">
          <mxGeometry x="153" width="110" height="30" as="geometry">
            <mxRectangle width="110" height="30" as="alternateBounds" />
          </mxGeometry>
        </mxCell>
        <mxCell id="tufFg8tONRUplMRt9rdd-404" style="shape=partialRectangle;collapsible=0;dropTarget=0;pointerEvents=0;fillColor=none;top=0;left=0;bottom=1;right=0;points=[[0,0.5],[1,0.5]];portConstraint=eastwest;shadow=0;fontColor=#030303;strokeColor=#1c4740;" vertex="1" parent="tufFg8tONRUplMRt9rdd-395">
          <mxGeometry y="90" width="263" height="30" as="geometry" />
        </mxCell>
        <mxCell id="tufFg8tONRUplMRt9rdd-405" value="FK" style="shape=partialRectangle;connectable=0;fillColor=none;top=0;left=0;bottom=0;right=0;editable=1;overflow=hidden;shadow=0;fontColor=#030303;strokeColor=#000000;fontStyle=1" vertex="1" parent="tufFg8tONRUplMRt9rdd-404">
          <mxGeometry width="30" height="30" as="geometry">
            <mxRectangle width="30" height="30" as="alternateBounds" />
          </mxGeometry>
        </mxCell>
        <mxCell id="tufFg8tONRUplMRt9rdd-406" value="group_id" style="shape=partialRectangle;connectable=0;fillColor=none;top=0;left=0;bottom=0;right=0;align=left;spacingLeft=6;overflow=hidden;shadow=0;fontColor=#030303;strokeColor=#000000;fontStyle=5" vertex="1" parent="tufFg8tONRUplMRt9rdd-404">
          <mxGeometry x="30" width="123" height="30" as="geometry">
            <mxRectangle width="123" height="30" as="alternateBounds" />
          </mxGeometry>
        </mxCell>
        <mxCell id="tufFg8tONRUplMRt9rdd-407" value="uuid" style="shape=partialRectangle;connectable=0;fillColor=none;top=0;left=0;bottom=0;right=0;align=left;spacingLeft=6;overflow=hidden;shadow=0;fontColor=#030303;strokeColor=#000000;fontStyle=5" vertex="1" parent="tufFg8tONRUplMRt9rdd-404">
          <mxGeometry x="153" width="110" height="30" as="geometry">
            <mxRectangle width="110" height="30" as="alternateBounds" />
          </mxGeometry>
        </mxCell>
        <mxCell id="tufFg8tONRUplMRt9rdd-408" value="" style="shape=partialRectangle;collapsible=0;dropTarget=0;pointerEvents=0;fillColor=none;top=0;left=0;bottom=0;right=0;points=[[0,0.5],[1,0.5]];portConstraint=eastwest;shadow=0;fontColor=#030303;strokeColor=#000000;" vertex="1" parent="tufFg8tONRUplMRt9rdd-395">
          <mxGeometry y="120" width="263" height="30" as="geometry" />
        </mxCell>
        <mxCell id="tufFg8tONRUplMRt9rdd-409" value="" style="shape=partialRectangle;connectable=0;fillColor=none;top=0;left=0;bottom=0;right=0;editable=1;overflow=hidden;shadow=0;fontColor=#030303;strokeColor=#000000;" vertex="1" parent="tufFg8tONRUplMRt9rdd-408">
          <mxGeometry width="30" height="30" as="geometry">
            <mxRectangle width="30" height="30" as="alternateBounds" />
          </mxGeometry>
        </mxCell>
        <mxCell id="tufFg8tONRUplMRt9rdd-410" value="updatedAt" style="shape=partialRectangle;connectable=0;fillColor=none;top=0;left=0;bottom=0;right=0;align=left;spacingLeft=6;overflow=hidden;shadow=0;fontColor=#030303;strokeColor=#000000;" vertex="1" parent="tufFg8tONRUplMRt9rdd-408">
          <mxGeometry x="30" width="123" height="30" as="geometry">
            <mxRectangle width="123" height="30" as="alternateBounds" />
          </mxGeometry>
        </mxCell>
        <mxCell id="tufFg8tONRUplMRt9rdd-411" value="timestamp" style="shape=partialRectangle;connectable=0;fillColor=none;top=0;left=0;bottom=0;right=0;align=left;spacingLeft=6;overflow=hidden;shadow=0;fontColor=#030303;strokeColor=#000000;" vertex="1" parent="tufFg8tONRUplMRt9rdd-408">
          <mxGeometry x="153" width="110" height="30" as="geometry">
            <mxRectangle width="110" height="30" as="alternateBounds" />
          </mxGeometry>
        </mxCell>
        <mxCell id="tufFg8tONRUplMRt9rdd-412" style="shape=partialRectangle;collapsible=0;dropTarget=0;pointerEvents=0;fillColor=none;top=0;left=0;bottom=0;right=0;points=[[0,0.5],[1,0.5]];portConstraint=eastwest;shadow=0;fontColor=#030303;strokeColor=#000000;" vertex="1" parent="tufFg8tONRUplMRt9rdd-395">
          <mxGeometry y="150" width="263" height="30" as="geometry" />
        </mxCell>
        <mxCell id="tufFg8tONRUplMRt9rdd-413" style="shape=partialRectangle;connectable=0;fillColor=none;top=0;left=0;bottom=0;right=0;editable=1;overflow=hidden;shadow=0;fontColor=#030303;strokeColor=#000000;" vertex="1" parent="tufFg8tONRUplMRt9rdd-412">
          <mxGeometry width="30" height="30" as="geometry">
            <mxRectangle width="30" height="30" as="alternateBounds" />
          </mxGeometry>
        </mxCell>
        <mxCell id="tufFg8tONRUplMRt9rdd-414" value="createdAt" style="shape=partialRectangle;connectable=0;fillColor=none;top=0;left=0;bottom=0;right=0;align=left;spacingLeft=6;overflow=hidden;shadow=0;fontColor=#030303;strokeColor=#000000;" vertex="1" parent="tufFg8tONRUplMRt9rdd-412">
          <mxGeometry x="30" width="123" height="30" as="geometry">
            <mxRectangle width="123" height="30" as="alternateBounds" />
          </mxGeometry>
        </mxCell>
        <mxCell id="tufFg8tONRUplMRt9rdd-415" value="timestamp" style="shape=partialRectangle;connectable=0;fillColor=none;top=0;left=0;bottom=0;right=0;align=left;spacingLeft=6;overflow=hidden;shadow=0;fontColor=#030303;strokeColor=#000000;" vertex="1" parent="tufFg8tONRUplMRt9rdd-412">
          <mxGeometry x="153" width="110" height="30" as="geometry">
            <mxRectangle width="110" height="30" as="alternateBounds" />
          </mxGeometry>
        </mxCell>
        <mxCell id="tufFg8tONRUplMRt9rdd-416" style="edgeStyle=orthogonalEdgeStyle;rounded=1;orthogonalLoop=1;jettySize=auto;html=1;exitX=0;exitY=0.5;exitDx=0;exitDy=0;entryX=1;entryY=0.5;entryDx=0;entryDy=0;fontSize=12;startArrow=ERmandOne;startFill=0;endArrow=ERoneToMany;endFill=0;" edge="1" parent="1" source="tufFg8tONRUplMRt9rdd-315" target="tufFg8tONRUplMRt9rdd-400">
          <mxGeometry relative="1" as="geometry" />
        </mxCell>
        <mxCell id="tufFg8tONRUplMRt9rdd-417" value="groups" style="shape=table;startSize=30;container=1;collapsible=1;childLayout=tableLayout;fixedRows=1;rowLines=0;fontStyle=1;align=center;resizeLast=1;shadow=0;fontColor=#ffffff;strokeColor=#0E4F7A;fillColor=#1369A2;swimlaneFillColor=#FFFFFF;" vertex="1" parent="1">
          <mxGeometry x="20" y="1990" width="263" height="270" as="geometry" />
        </mxCell>
        <mxCell id="tufFg8tONRUplMRt9rdd-418" value="" style="shape=partialRectangle;collapsible=0;dropTarget=0;pointerEvents=0;fillColor=none;top=0;left=0;bottom=1;right=0;points=[[0,0.5],[1,0.5]];portConstraint=eastwest;shadow=0;fontColor=#030303;strokeColor=#0E4F7A;" vertex="1" parent="tufFg8tONRUplMRt9rdd-417">
          <mxGeometry y="30" width="263" height="30" as="geometry" />
        </mxCell>
        <mxCell id="tufFg8tONRUplMRt9rdd-419" value="PK" style="shape=partialRectangle;connectable=0;fillColor=none;top=0;left=0;bottom=0;right=0;fontStyle=1;overflow=hidden;shadow=0;fontColor=#030303;strokeColor=#000000;" vertex="1" parent="tufFg8tONRUplMRt9rdd-418">
          <mxGeometry width="30" height="30" as="geometry">
            <mxRectangle width="30" height="30" as="alternateBounds" />
          </mxGeometry>
        </mxCell>
        <mxCell id="tufFg8tONRUplMRt9rdd-420" value="id" style="shape=partialRectangle;connectable=0;fillColor=none;top=0;left=0;bottom=0;right=0;align=left;spacingLeft=6;fontStyle=5;overflow=hidden;shadow=0;fontColor=#030303;strokeColor=#000000;" vertex="1" parent="tufFg8tONRUplMRt9rdd-418">
          <mxGeometry x="30" width="123" height="30" as="geometry">
            <mxRectangle width="123" height="30" as="alternateBounds" />
          </mxGeometry>
        </mxCell>
        <mxCell id="tufFg8tONRUplMRt9rdd-421" value="uuid" style="shape=partialRectangle;connectable=0;fillColor=none;top=0;left=0;bottom=0;right=0;align=left;spacingLeft=6;fontStyle=5;overflow=hidden;shadow=0;fontColor=#030303;strokeColor=#000000;" vertex="1" parent="tufFg8tONRUplMRt9rdd-418">
          <mxGeometry x="153" width="110" height="30" as="geometry">
            <mxRectangle width="110" height="30" as="alternateBounds" />
          </mxGeometry>
        </mxCell>
        <mxCell id="tufFg8tONRUplMRt9rdd-422" style="shape=partialRectangle;collapsible=0;dropTarget=0;pointerEvents=0;fillColor=none;top=0;left=0;bottom=1;right=0;points=[[0,0.5],[1,0.5]];portConstraint=eastwest;shadow=0;fontColor=#030303;strokeColor=#0E4F7A;" vertex="1" parent="tufFg8tONRUplMRt9rdd-417">
          <mxGeometry y="60" width="263" height="30" as="geometry" />
        </mxCell>
        <mxCell id="tufFg8tONRUplMRt9rdd-423" value="FK" style="shape=partialRectangle;connectable=0;fillColor=none;top=0;left=0;bottom=0;right=0;editable=1;overflow=hidden;shadow=0;fontColor=#030303;strokeColor=#000000;fontStyle=5" vertex="1" parent="tufFg8tONRUplMRt9rdd-422">
          <mxGeometry width="30" height="30" as="geometry">
            <mxRectangle width="30" height="30" as="alternateBounds" />
          </mxGeometry>
        </mxCell>
        <mxCell id="tufFg8tONRUplMRt9rdd-424" value="group_id" style="shape=partialRectangle;connectable=0;fillColor=none;top=0;left=0;bottom=0;right=0;align=left;spacingLeft=6;overflow=hidden;shadow=0;fontColor=#030303;strokeColor=#000000;fontStyle=5" vertex="1" parent="tufFg8tONRUplMRt9rdd-422">
          <mxGeometry x="30" width="123" height="30" as="geometry">
            <mxRectangle width="123" height="30" as="alternateBounds" />
          </mxGeometry>
        </mxCell>
        <mxCell id="tufFg8tONRUplMRt9rdd-425" value="uuid" style="shape=partialRectangle;connectable=0;fillColor=none;top=0;left=0;bottom=0;right=0;align=left;spacingLeft=6;overflow=hidden;shadow=0;fontColor=#030303;strokeColor=#000000;fontStyle=5" vertex="1" parent="tufFg8tONRUplMRt9rdd-422">
          <mxGeometry x="153" width="110" height="30" as="geometry">
            <mxRectangle width="110" height="30" as="alternateBounds" />
          </mxGeometry>
        </mxCell>
        <mxCell id="tufFg8tONRUplMRt9rdd-426" value="" style="shape=partialRectangle;collapsible=0;dropTarget=0;pointerEvents=0;fillColor=none;top=0;left=0;bottom=0;right=0;points=[[0,0.5],[1,0.5]];portConstraint=eastwest;shadow=0;fontColor=#030303;strokeColor=#000000;" vertex="1" parent="tufFg8tONRUplMRt9rdd-417">
          <mxGeometry y="90" width="263" height="30" as="geometry" />
        </mxCell>
        <mxCell id="tufFg8tONRUplMRt9rdd-427" value="" style="shape=partialRectangle;connectable=0;fillColor=none;top=0;left=0;bottom=0;right=0;editable=1;overflow=hidden;shadow=0;fontColor=#030303;strokeColor=#000000;" vertex="1" parent="tufFg8tONRUplMRt9rdd-426">
          <mxGeometry width="30" height="30" as="geometry">
            <mxRectangle width="30" height="30" as="alternateBounds" />
          </mxGeometry>
        </mxCell>
        <mxCell id="tufFg8tONRUplMRt9rdd-428" value="name" style="shape=partialRectangle;connectable=0;fillColor=none;top=0;left=0;bottom=0;right=0;align=left;spacingLeft=6;overflow=hidden;shadow=0;fontColor=#030303;strokeColor=#000000;" vertex="1" parent="tufFg8tONRUplMRt9rdd-426">
          <mxGeometry x="30" width="123" height="30" as="geometry">
            <mxRectangle width="123" height="30" as="alternateBounds" />
          </mxGeometry>
        </mxCell>
        <mxCell id="tufFg8tONRUplMRt9rdd-429" value="varchar(255)" style="shape=partialRectangle;connectable=0;fillColor=none;top=0;left=0;bottom=0;right=0;align=left;spacingLeft=6;overflow=hidden;shadow=0;fontColor=#030303;strokeColor=#000000;" vertex="1" parent="tufFg8tONRUplMRt9rdd-426">
          <mxGeometry x="153" width="110" height="30" as="geometry">
            <mxRectangle width="110" height="30" as="alternateBounds" />
          </mxGeometry>
        </mxCell>
        <mxCell id="tufFg8tONRUplMRt9rdd-430" value="" style="shape=partialRectangle;collapsible=0;dropTarget=0;pointerEvents=0;fillColor=none;top=0;left=0;bottom=0;right=0;points=[[0,0.5],[1,0.5]];portConstraint=eastwest;shadow=0;fontColor=#030303;strokeColor=#000000;" vertex="1" parent="tufFg8tONRUplMRt9rdd-417">
          <mxGeometry y="120" width="263" height="30" as="geometry" />
        </mxCell>
        <mxCell id="tufFg8tONRUplMRt9rdd-431" value="" style="shape=partialRectangle;connectable=0;fillColor=none;top=0;left=0;bottom=0;right=0;editable=1;overflow=hidden;shadow=0;fontColor=#030303;strokeColor=#000000;" vertex="1" parent="tufFg8tONRUplMRt9rdd-430">
          <mxGeometry width="30" height="30" as="geometry">
            <mxRectangle width="30" height="30" as="alternateBounds" />
          </mxGeometry>
        </mxCell>
        <mxCell id="tufFg8tONRUplMRt9rdd-432" value="short_name" style="shape=partialRectangle;connectable=0;fillColor=none;top=0;left=0;bottom=0;right=0;align=left;spacingLeft=6;overflow=hidden;shadow=0;fontColor=#030303;strokeColor=#000000;" vertex="1" parent="tufFg8tONRUplMRt9rdd-430">
          <mxGeometry x="30" width="123" height="30" as="geometry">
            <mxRectangle width="123" height="30" as="alternateBounds" />
          </mxGeometry>
        </mxCell>
        <mxCell id="tufFg8tONRUplMRt9rdd-433" value="varchar(255)" style="shape=partialRectangle;connectable=0;fillColor=none;top=0;left=0;bottom=0;right=0;align=left;spacingLeft=6;overflow=hidden;shadow=0;fontColor=#030303;strokeColor=#000000;" vertex="1" parent="tufFg8tONRUplMRt9rdd-430">
          <mxGeometry x="153" width="110" height="30" as="geometry">
            <mxRectangle width="110" height="30" as="alternateBounds" />
          </mxGeometry>
        </mxCell>
        <mxCell id="tufFg8tONRUplMRt9rdd-434" value="" style="shape=partialRectangle;collapsible=0;dropTarget=0;pointerEvents=0;fillColor=none;top=0;left=0;bottom=0;right=0;points=[[0,0.5],[1,0.5]];portConstraint=eastwest;shadow=0;fontColor=#030303;strokeColor=#000000;" vertex="1" parent="tufFg8tONRUplMRt9rdd-417">
          <mxGeometry y="150" width="263" height="30" as="geometry" />
        </mxCell>
        <mxCell id="tufFg8tONRUplMRt9rdd-435" value="" style="shape=partialRectangle;connectable=0;fillColor=none;top=0;left=0;bottom=0;right=0;editable=1;overflow=hidden;shadow=0;fontColor=#030303;strokeColor=#000000;" vertex="1" parent="tufFg8tONRUplMRt9rdd-434">
          <mxGeometry width="30" height="30" as="geometry">
            <mxRectangle width="30" height="30" as="alternateBounds" />
          </mxGeometry>
        </mxCell>
        <mxCell id="tufFg8tONRUplMRt9rdd-436" value="deactivated" style="shape=partialRectangle;connectable=0;fillColor=none;top=0;left=0;bottom=0;right=0;align=left;spacingLeft=6;overflow=hidden;shadow=0;fontColor=#030303;strokeColor=#000000;" vertex="1" parent="tufFg8tONRUplMRt9rdd-434">
          <mxGeometry x="30" width="123" height="30" as="geometry">
            <mxRectangle width="123" height="30" as="alternateBounds" />
          </mxGeometry>
        </mxCell>
        <mxCell id="tufFg8tONRUplMRt9rdd-437" value="boolean" style="shape=partialRectangle;connectable=0;fillColor=none;top=0;left=0;bottom=0;right=0;align=left;spacingLeft=6;overflow=hidden;shadow=0;fontColor=#030303;strokeColor=#000000;" vertex="1" parent="tufFg8tONRUplMRt9rdd-434">
          <mxGeometry x="153" width="110" height="30" as="geometry">
            <mxRectangle width="110" height="30" as="alternateBounds" />
          </mxGeometry>
        </mxCell>
        <mxCell id="tufFg8tONRUplMRt9rdd-438" value="" style="shape=partialRectangle;collapsible=0;dropTarget=0;pointerEvents=0;fillColor=none;top=0;left=0;bottom=0;right=0;points=[[0,0.5],[1,0.5]];portConstraint=eastwest;shadow=0;fontColor=#030303;strokeColor=#000000;" vertex="1" parent="tufFg8tONRUplMRt9rdd-417">
          <mxGeometry y="180" width="263" height="30" as="geometry" />
        </mxCell>
        <mxCell id="tufFg8tONRUplMRt9rdd-439" value="" style="shape=partialRectangle;connectable=0;fillColor=none;top=0;left=0;bottom=0;right=0;editable=1;overflow=hidden;shadow=0;fontColor=#030303;strokeColor=#000000;" vertex="1" parent="tufFg8tONRUplMRt9rdd-438">
          <mxGeometry width="30" height="30" as="geometry">
            <mxRectangle width="30" height="30" as="alternateBounds" />
          </mxGeometry>
        </mxCell>
        <mxCell id="tufFg8tONRUplMRt9rdd-440" value="archived" style="shape=partialRectangle;connectable=0;fillColor=none;top=0;left=0;bottom=0;right=0;align=left;spacingLeft=6;overflow=hidden;shadow=0;fontColor=#030303;strokeColor=#000000;" vertex="1" parent="tufFg8tONRUplMRt9rdd-438">
          <mxGeometry x="30" width="123" height="30" as="geometry">
            <mxRectangle width="123" height="30" as="alternateBounds" />
          </mxGeometry>
        </mxCell>
        <mxCell id="tufFg8tONRUplMRt9rdd-441" value="boolean" style="shape=partialRectangle;connectable=0;fillColor=none;top=0;left=0;bottom=0;right=0;align=left;spacingLeft=6;overflow=hidden;shadow=0;fontColor=#030303;strokeColor=#000000;" vertex="1" parent="tufFg8tONRUplMRt9rdd-438">
          <mxGeometry x="153" width="110" height="30" as="geometry">
            <mxRectangle width="110" height="30" as="alternateBounds" />
          </mxGeometry>
        </mxCell>
        <mxCell id="tufFg8tONRUplMRt9rdd-442" value="" style="shape=partialRectangle;collapsible=0;dropTarget=0;pointerEvents=0;fillColor=none;top=0;left=0;bottom=0;right=0;points=[[0,0.5],[1,0.5]];portConstraint=eastwest;shadow=0;fontColor=#030303;strokeColor=#000000;" vertex="1" parent="tufFg8tONRUplMRt9rdd-417">
          <mxGeometry y="210" width="263" height="30" as="geometry" />
        </mxCell>
        <mxCell id="tufFg8tONRUplMRt9rdd-443" value="" style="shape=partialRectangle;connectable=0;fillColor=none;top=0;left=0;bottom=0;right=0;editable=1;overflow=hidden;shadow=0;fontColor=#030303;strokeColor=#000000;" vertex="1" parent="tufFg8tONRUplMRt9rdd-442">
          <mxGeometry width="30" height="30" as="geometry">
            <mxRectangle width="30" height="30" as="alternateBounds" />
          </mxGeometry>
        </mxCell>
        <mxCell id="tufFg8tONRUplMRt9rdd-444" value="updatedAt" style="shape=partialRectangle;connectable=0;fillColor=none;top=0;left=0;bottom=0;right=0;align=left;spacingLeft=6;overflow=hidden;shadow=0;fontColor=#030303;strokeColor=#000000;" vertex="1" parent="tufFg8tONRUplMRt9rdd-442">
          <mxGeometry x="30" width="123" height="30" as="geometry">
            <mxRectangle width="123" height="30" as="alternateBounds" />
          </mxGeometry>
        </mxCell>
        <mxCell id="tufFg8tONRUplMRt9rdd-445" value="timestamp" style="shape=partialRectangle;connectable=0;fillColor=none;top=0;left=0;bottom=0;right=0;align=left;spacingLeft=6;overflow=hidden;shadow=0;fontColor=#030303;strokeColor=#000000;" vertex="1" parent="tufFg8tONRUplMRt9rdd-442">
          <mxGeometry x="153" width="110" height="30" as="geometry">
            <mxRectangle width="110" height="30" as="alternateBounds" />
          </mxGeometry>
        </mxCell>
        <mxCell id="tufFg8tONRUplMRt9rdd-446" style="shape=partialRectangle;collapsible=0;dropTarget=0;pointerEvents=0;fillColor=none;top=0;left=0;bottom=0;right=0;points=[[0,0.5],[1,0.5]];portConstraint=eastwest;shadow=0;fontColor=#030303;strokeColor=#000000;" vertex="1" parent="tufFg8tONRUplMRt9rdd-417">
          <mxGeometry y="240" width="263" height="30" as="geometry" />
        </mxCell>
        <mxCell id="tufFg8tONRUplMRt9rdd-447" style="shape=partialRectangle;connectable=0;fillColor=none;top=0;left=0;bottom=0;right=0;editable=1;overflow=hidden;shadow=0;fontColor=#030303;strokeColor=#000000;" vertex="1" parent="tufFg8tONRUplMRt9rdd-446">
          <mxGeometry width="30" height="30" as="geometry">
            <mxRectangle width="30" height="30" as="alternateBounds" />
          </mxGeometry>
        </mxCell>
        <mxCell id="tufFg8tONRUplMRt9rdd-448" value="createdAt" style="shape=partialRectangle;connectable=0;fillColor=none;top=0;left=0;bottom=0;right=0;align=left;spacingLeft=6;overflow=hidden;shadow=0;fontColor=#030303;strokeColor=#000000;" vertex="1" parent="tufFg8tONRUplMRt9rdd-446">
          <mxGeometry x="30" width="123" height="30" as="geometry">
            <mxRectangle width="123" height="30" as="alternateBounds" />
          </mxGeometry>
        </mxCell>
        <mxCell id="tufFg8tONRUplMRt9rdd-449" value="timestamp" style="shape=partialRectangle;connectable=0;fillColor=none;top=0;left=0;bottom=0;right=0;align=left;spacingLeft=6;overflow=hidden;shadow=0;fontColor=#030303;strokeColor=#000000;" vertex="1" parent="tufFg8tONRUplMRt9rdd-446">
          <mxGeometry x="153" width="110" height="30" as="geometry">
            <mxRectangle width="110" height="30" as="alternateBounds" />
          </mxGeometry>
        </mxCell>
        <mxCell id="tufFg8tONRUplMRt9rdd-450" style="edgeStyle=orthogonalEdgeStyle;rounded=1;orthogonalLoop=1;jettySize=auto;html=1;exitX=1;exitY=0.5;exitDx=0;exitDy=0;entryX=0;entryY=0.5;entryDx=0;entryDy=0;fontSize=12;startArrow=ERmandOne;startFill=0;endArrow=ERoneToMany;endFill=0;" edge="1" parent="1" source="tufFg8tONRUplMRt9rdd-422" target="tufFg8tONRUplMRt9rdd-404">
          <mxGeometry relative="1" as="geometry" />
        </mxCell>
        <mxCell id="tufFg8tONRUplMRt9rdd-451" value="groups_types" style="shape=table;startSize=30;container=1;collapsible=1;childLayout=tableLayout;fixedRows=1;rowLines=0;fontStyle=1;align=center;resizeLast=1;shadow=0;fontColor=#ffffff;strokeColor=#0E4F7A;fillColor=#1369A2;swimlaneFillColor=#FFFFFF;" vertex="1" parent="1">
          <mxGeometry x="20" y="2290" width="263" height="210" as="geometry" />
        </mxCell>
        <mxCell id="tufFg8tONRUplMRt9rdd-452" value="" style="shape=partialRectangle;collapsible=0;dropTarget=0;pointerEvents=0;fillColor=none;top=0;left=0;bottom=1;right=0;points=[[0,0.5],[1,0.5]];portConstraint=eastwest;shadow=0;fontColor=#030303;strokeColor=#0E4F7A;" vertex="1" parent="tufFg8tONRUplMRt9rdd-451">
          <mxGeometry y="30" width="263" height="30" as="geometry" />
        </mxCell>
        <mxCell id="tufFg8tONRUplMRt9rdd-453" value="PK" style="shape=partialRectangle;connectable=0;fillColor=none;top=0;left=0;bottom=0;right=0;fontStyle=1;overflow=hidden;shadow=0;fontColor=#030303;strokeColor=#000000;" vertex="1" parent="tufFg8tONRUplMRt9rdd-452">
          <mxGeometry width="30" height="30" as="geometry">
            <mxRectangle width="30" height="30" as="alternateBounds" />
          </mxGeometry>
        </mxCell>
        <mxCell id="tufFg8tONRUplMRt9rdd-454" value="id" style="shape=partialRectangle;connectable=0;fillColor=none;top=0;left=0;bottom=0;right=0;align=left;spacingLeft=6;fontStyle=5;overflow=hidden;shadow=0;fontColor=#030303;strokeColor=#000000;" vertex="1" parent="tufFg8tONRUplMRt9rdd-452">
          <mxGeometry x="30" width="123" height="30" as="geometry">
            <mxRectangle width="123" height="30" as="alternateBounds" />
          </mxGeometry>
        </mxCell>
        <mxCell id="tufFg8tONRUplMRt9rdd-455" value="uuid" style="shape=partialRectangle;connectable=0;fillColor=none;top=0;left=0;bottom=0;right=0;align=left;spacingLeft=6;fontStyle=5;overflow=hidden;shadow=0;fontColor=#030303;strokeColor=#000000;" vertex="1" parent="tufFg8tONRUplMRt9rdd-452">
          <mxGeometry x="153" width="110" height="30" as="geometry">
            <mxRectangle width="110" height="30" as="alternateBounds" />
          </mxGeometry>
        </mxCell>
        <mxCell id="tufFg8tONRUplMRt9rdd-456" style="shape=partialRectangle;collapsible=0;dropTarget=0;pointerEvents=0;fillColor=none;top=0;left=0;bottom=1;right=0;points=[[0,0.5],[1,0.5]];portConstraint=eastwest;shadow=0;fontColor=#030303;strokeColor=#0E4F7A;" vertex="1" parent="tufFg8tONRUplMRt9rdd-451">
          <mxGeometry y="60" width="263" height="30" as="geometry" />
        </mxCell>
        <mxCell id="tufFg8tONRUplMRt9rdd-457" value="FK" style="shape=partialRectangle;connectable=0;fillColor=none;top=0;left=0;bottom=0;right=0;editable=1;overflow=hidden;shadow=0;fontColor=#030303;strokeColor=#000000;fontStyle=5" vertex="1" parent="tufFg8tONRUplMRt9rdd-456">
          <mxGeometry width="30" height="30" as="geometry">
            <mxRectangle width="30" height="30" as="alternateBounds" />
          </mxGeometry>
        </mxCell>
        <mxCell id="tufFg8tONRUplMRt9rdd-458" value="group_id" style="shape=partialRectangle;connectable=0;fillColor=none;top=0;left=0;bottom=0;right=0;align=left;spacingLeft=6;overflow=hidden;shadow=0;fontColor=#030303;strokeColor=#000000;fontStyle=5" vertex="1" parent="tufFg8tONRUplMRt9rdd-456">
          <mxGeometry x="30" width="123" height="30" as="geometry">
            <mxRectangle width="123" height="30" as="alternateBounds" />
          </mxGeometry>
        </mxCell>
        <mxCell id="tufFg8tONRUplMRt9rdd-459" value="uuid" style="shape=partialRectangle;connectable=0;fillColor=none;top=0;left=0;bottom=0;right=0;align=left;spacingLeft=6;overflow=hidden;shadow=0;fontColor=#030303;strokeColor=#000000;fontStyle=5" vertex="1" parent="tufFg8tONRUplMRt9rdd-456">
          <mxGeometry x="153" width="110" height="30" as="geometry">
            <mxRectangle width="110" height="30" as="alternateBounds" />
          </mxGeometry>
        </mxCell>
        <mxCell id="tufFg8tONRUplMRt9rdd-460" value="" style="shape=partialRectangle;collapsible=0;dropTarget=0;pointerEvents=0;fillColor=none;top=0;left=0;bottom=0;right=0;points=[[0,0.5],[1,0.5]];portConstraint=eastwest;shadow=0;fontColor=#030303;strokeColor=#000000;" vertex="1" parent="tufFg8tONRUplMRt9rdd-451">
          <mxGeometry y="90" width="263" height="30" as="geometry" />
        </mxCell>
        <mxCell id="tufFg8tONRUplMRt9rdd-461" value="" style="shape=partialRectangle;connectable=0;fillColor=none;top=0;left=0;bottom=0;right=0;editable=1;overflow=hidden;shadow=0;fontColor=#030303;strokeColor=#000000;" vertex="1" parent="tufFg8tONRUplMRt9rdd-460">
          <mxGeometry width="30" height="30" as="geometry">
            <mxRectangle width="30" height="30" as="alternateBounds" />
          </mxGeometry>
        </mxCell>
        <mxCell id="tufFg8tONRUplMRt9rdd-462" value="name" style="shape=partialRectangle;connectable=0;fillColor=none;top=0;left=0;bottom=0;right=0;align=left;spacingLeft=6;overflow=hidden;shadow=0;fontColor=#030303;strokeColor=#000000;" vertex="1" parent="tufFg8tONRUplMRt9rdd-460">
          <mxGeometry x="30" width="123" height="30" as="geometry">
            <mxRectangle width="123" height="30" as="alternateBounds" />
          </mxGeometry>
        </mxCell>
        <mxCell id="tufFg8tONRUplMRt9rdd-463" value="varchar(255)" style="shape=partialRectangle;connectable=0;fillColor=none;top=0;left=0;bottom=0;right=0;align=left;spacingLeft=6;overflow=hidden;shadow=0;fontColor=#030303;strokeColor=#000000;" vertex="1" parent="tufFg8tONRUplMRt9rdd-460">
          <mxGeometry x="153" width="110" height="30" as="geometry">
            <mxRectangle width="110" height="30" as="alternateBounds" />
          </mxGeometry>
        </mxCell>
        <mxCell id="tufFg8tONRUplMRt9rdd-464" value="" style="shape=partialRectangle;collapsible=0;dropTarget=0;pointerEvents=0;fillColor=none;top=0;left=0;bottom=0;right=0;points=[[0,0.5],[1,0.5]];portConstraint=eastwest;shadow=0;fontColor=#030303;strokeColor=#000000;" vertex="1" parent="tufFg8tONRUplMRt9rdd-451">
          <mxGeometry y="120" width="263" height="30" as="geometry" />
        </mxCell>
        <mxCell id="tufFg8tONRUplMRt9rdd-465" value="" style="shape=partialRectangle;connectable=0;fillColor=none;top=0;left=0;bottom=0;right=0;editable=1;overflow=hidden;shadow=0;fontColor=#030303;strokeColor=#000000;" vertex="1" parent="tufFg8tONRUplMRt9rdd-464">
          <mxGeometry width="30" height="30" as="geometry">
            <mxRectangle width="30" height="30" as="alternateBounds" />
          </mxGeometry>
        </mxCell>
        <mxCell id="tufFg8tONRUplMRt9rdd-466" value="type" style="shape=partialRectangle;connectable=0;fillColor=none;top=0;left=0;bottom=0;right=0;align=left;spacingLeft=6;overflow=hidden;shadow=0;fontColor=#030303;strokeColor=#000000;" vertex="1" parent="tufFg8tONRUplMRt9rdd-464">
          <mxGeometry x="30" width="123" height="30" as="geometry">
            <mxRectangle width="123" height="30" as="alternateBounds" />
          </mxGeometry>
        </mxCell>
        <mxCell id="tufFg8tONRUplMRt9rdd-467" value="varchar(255)" style="shape=partialRectangle;connectable=0;fillColor=none;top=0;left=0;bottom=0;right=0;align=left;spacingLeft=6;overflow=hidden;shadow=0;fontColor=#030303;strokeColor=#000000;" vertex="1" parent="tufFg8tONRUplMRt9rdd-464">
          <mxGeometry x="153" width="110" height="30" as="geometry">
            <mxRectangle width="110" height="30" as="alternateBounds" />
          </mxGeometry>
        </mxCell>
        <mxCell id="tufFg8tONRUplMRt9rdd-468" value="" style="shape=partialRectangle;collapsible=0;dropTarget=0;pointerEvents=0;fillColor=none;top=0;left=0;bottom=0;right=0;points=[[0,0.5],[1,0.5]];portConstraint=eastwest;shadow=0;fontColor=#030303;strokeColor=#000000;" vertex="1" parent="tufFg8tONRUplMRt9rdd-451">
          <mxGeometry y="150" width="263" height="30" as="geometry" />
        </mxCell>
        <mxCell id="tufFg8tONRUplMRt9rdd-469" value="" style="shape=partialRectangle;connectable=0;fillColor=none;top=0;left=0;bottom=0;right=0;editable=1;overflow=hidden;shadow=0;fontColor=#030303;strokeColor=#000000;" vertex="1" parent="tufFg8tONRUplMRt9rdd-468">
          <mxGeometry width="30" height="30" as="geometry">
            <mxRectangle width="30" height="30" as="alternateBounds" />
          </mxGeometry>
        </mxCell>
        <mxCell id="tufFg8tONRUplMRt9rdd-470" value="updatedAt" style="shape=partialRectangle;connectable=0;fillColor=none;top=0;left=0;bottom=0;right=0;align=left;spacingLeft=6;overflow=hidden;shadow=0;fontColor=#030303;strokeColor=#000000;" vertex="1" parent="tufFg8tONRUplMRt9rdd-468">
          <mxGeometry x="30" width="123" height="30" as="geometry">
            <mxRectangle width="123" height="30" as="alternateBounds" />
          </mxGeometry>
        </mxCell>
        <mxCell id="tufFg8tONRUplMRt9rdd-471" value="timestamp" style="shape=partialRectangle;connectable=0;fillColor=none;top=0;left=0;bottom=0;right=0;align=left;spacingLeft=6;overflow=hidden;shadow=0;fontColor=#030303;strokeColor=#000000;" vertex="1" parent="tufFg8tONRUplMRt9rdd-468">
          <mxGeometry x="153" width="110" height="30" as="geometry">
            <mxRectangle width="110" height="30" as="alternateBounds" />
          </mxGeometry>
        </mxCell>
        <mxCell id="tufFg8tONRUplMRt9rdd-472" style="shape=partialRectangle;collapsible=0;dropTarget=0;pointerEvents=0;fillColor=none;top=0;left=0;bottom=0;right=0;points=[[0,0.5],[1,0.5]];portConstraint=eastwest;shadow=0;fontColor=#030303;strokeColor=#000000;" vertex="1" parent="tufFg8tONRUplMRt9rdd-451">
          <mxGeometry y="180" width="263" height="30" as="geometry" />
        </mxCell>
        <mxCell id="tufFg8tONRUplMRt9rdd-473" style="shape=partialRectangle;connectable=0;fillColor=none;top=0;left=0;bottom=0;right=0;editable=1;overflow=hidden;shadow=0;fontColor=#030303;strokeColor=#000000;" vertex="1" parent="tufFg8tONRUplMRt9rdd-472">
          <mxGeometry width="30" height="30" as="geometry">
            <mxRectangle width="30" height="30" as="alternateBounds" />
          </mxGeometry>
        </mxCell>
        <mxCell id="tufFg8tONRUplMRt9rdd-474" value="createdAt" style="shape=partialRectangle;connectable=0;fillColor=none;top=0;left=0;bottom=0;right=0;align=left;spacingLeft=6;overflow=hidden;shadow=0;fontColor=#030303;strokeColor=#000000;" vertex="1" parent="tufFg8tONRUplMRt9rdd-472">
          <mxGeometry x="30" width="123" height="30" as="geometry">
            <mxRectangle width="123" height="30" as="alternateBounds" />
          </mxGeometry>
        </mxCell>
        <mxCell id="tufFg8tONRUplMRt9rdd-475" value="timestamp" style="shape=partialRectangle;connectable=0;fillColor=none;top=0;left=0;bottom=0;right=0;align=left;spacingLeft=6;overflow=hidden;shadow=0;fontColor=#030303;strokeColor=#000000;" vertex="1" parent="tufFg8tONRUplMRt9rdd-472">
          <mxGeometry x="153" width="110" height="30" as="geometry">
            <mxRectangle width="110" height="30" as="alternateBounds" />
          </mxGeometry>
        </mxCell>
        <mxCell id="tufFg8tONRUplMRt9rdd-476" style="edgeStyle=orthogonalEdgeStyle;rounded=1;orthogonalLoop=1;jettySize=auto;html=1;exitX=0;exitY=0.5;exitDx=0;exitDy=0;entryX=0;entryY=0.5;entryDx=0;entryDy=0;fontSize=12;startArrow=ERmandOne;startFill=0;endArrow=ERoneToMany;endFill=0;" edge="1" parent="1" source="tufFg8tONRUplMRt9rdd-422" target="tufFg8tONRUplMRt9rdd-456">
          <mxGeometry relative="1" as="geometry" />
        </mxCell>
      </root>
    </mxGraphModel>
  </diagram>
</mxfile>
